<svg xmlns="http://www.w3.org/2000/svg" viewBox="0 0 136.2 105"><style>.st0{fill:#fff}.st1{fill:#6b6b6b}.st2{fill:#237ef3}.st3{fill:#2667c6}.st4{fill:#d9e3e8}</style><g id="Layer_2"><path class="st0" d="M-1740.3-665h1000v500h-1000z"/><path d="M-1740.3-165h1000v500h-1000z"/><path class="st0" d="M-2760.3 355h1000v500h-1000zM-1740.3 355h1000v500h-1000z"/><path class="st1" d="M-2760.3 855h1000v500h-1000zM-1740.3 855h1000v500h-1000z"/></g><g id="Layer_1"><path class="st2" d="M-2281.9-418.2c-2.6-2.4-3.9-5.4-3.9-9.2 0-3.4 1.2-6.3 3.6-8.5 2.4-2.3 5.7-3.7 10.1-4.4 1.1-.1 2.1-.2 3.1-.4 3.5-.4 5.6-.7 6.3-.9 1.8-.3 2.8-1.3 2.8-3.1s-.8-3.3-2.3-4.4c-1.5-1.1-3.4-1.7-5.7-1.7-4 0-7 1.5-8.8 4.4-.4.6-.9 1-1.4 1-.4 0-.7-.1-1-.3l-4.2-2.8c-.4-.3-.7-.7-.7-1.3 0-.1 0-.4.1-.7 1.4-2.7 3.6-4.9 6.4-6.4 2.8-1.5 6-2.3 9.6-2.3 3.3 0 6.2.6 8.6 1.9 2.5 1.2 4.4 3 5.8 5.3 1.4 2.3 2 4.9 2 7.9v28c0 .4-.1.8-.4 1.1-.3.3-.7.4-1.1.4h-5.1c-.4 0-.8-.1-1.1-.4-.3-.3-.4-.7-.4-1.2v-3.8c-3.4 3.6-7.5 5.4-12.2 5.4-4.1 0-7.5-1.2-10.1-3.6zm16.4-5.9c1.7-1 3.1-2.3 4.2-3.9s1.6-3.3 1.6-5.1v-1.5l-5.6.8c-3 .3-5 .6-5.9.8-4.1.7-6.1 2.5-6.1 5.3 0 1.5.6 2.8 1.7 3.7 1.1.9 2.7 1.4 4.5 1.4 2 0 3.8-.5 5.6-1.5zM-2233.3-415.9c-2.5-.8-4.7-2-6.6-3.5-.2-.2-.4-.5-.5-.8-.1-.3-.1-.6 0-.9.3-.8 1.2-2.4 2.5-4.7.4-.6.9-.9 1.5-.9.3 0 .7.1 1 .3 1.8 1.2 3.5 2.1 5 2.7 1.6.6 3.2.9 5 .9 2.1 0 3.7-.4 4.8-1.2 1.1-.8 1.6-1.8 1.6-3.2 0-1.1-.5-2-1.4-2.7-.9-.6-2.7-1.5-5.4-2.5l-2.7-1c-2.2-.8-4-1.8-5.6-2.7-1.5-1-2.8-2.3-3.9-4-1.1-1.7-1.6-3.8-1.6-6.3 0-3.9 1.3-7 3.9-9.4 2.6-2.3 6.1-3.5 10.4-3.5 2.5 0 5 .4 7.5 1.2 2.4.8 4.6 2 6.4 3.4.2.2.4.5.5.8.1.3.1.6 0 .9-.4 1-1.2 2.6-2.2 4.7-.3.5-.8.8-1.4.8-.3 0-.7-.1-1-.3-3.4-2.2-6.6-3.4-9.5-3.4-1.7 0-3 .4-4 1.1-1 .7-1.5 1.7-1.5 3s.5 2.4 1.6 3.2c1.1.9 3.1 1.9 6 3 2.8 1.1 5 2 6.6 2.8s3 2 4.3 3.7c1.3 1.7 2 3.8 2 6.4 0 2.6-.7 4.9-2 6.9s-3.2 3.5-5.5 4.6c-2.4 1.1-5.1 1.6-8.1 1.6-2.7.3-5.2-.1-7.7-1zM-2191.4-401.8c-.3-.4-.3-.9-.1-1.5l3.9-11-14.6-42.5c-.1-.3-.1-.5-.1-.7 0-.5.2-.9.5-1.2.3-.3.8-.5 1.3-.5h5.2c.5 0 1 .1 1.4.4.4.3.7.7.9 1.2l10.1 30.6 10.1-30.6c.1-.5.4-.9.9-1.2.4-.3.9-.4 1.4-.4h4.8c.5 0 1 .2 1.3.5.3.3.5.7.5 1.2 0 .1-.1.4-.1.7l-18.7 54c-.2.5-.5.9-.9 1.2-.4.3-.9.4-1.4.4h-4.9c-.8 0-1.2-.2-1.5-.6zM-2153.4-415.1c-.3-.3-.4-.7-.4-1.1v-41.4c0-.4.1-.8.4-1.1.3-.3.7-.4 1.1-.4h5.8c.4 0 .8.1 1.1.4.3.3.4.7.4 1.1v4.4c1.4-1.9 3-3.4 5-4.4 1.9-1.1 4-1.6 6.3-1.6 2.8 0 5.4.7 7.6 2 2.3 1.3 4 3.2 5.3 5.6 1.3 2.4 1.9 5.1 1.9 8v27.4c0 .4-.1.8-.4 1.1-.3.3-.7.4-1.1.4h-5.8c-.4 0-.8-.1-1.1-.4-.3-.3-.4-.7-.4-1.1v-26.3c0-2.6-.7-4.7-2-6.1-1.3-1.4-3.2-2.1-5.7-2.1-2.9 0-5.3 1-7 2.9-1.7 1.9-2.6 4.6-2.6 7.9v23.7c0 .4-.1.8-.4 1.1-.3.3-.7.4-1.1.4h-5.8c-.5.1-.8-.1-1.1-.4zM-2098.2-417c-2.7-1.6-4.9-3.7-6.4-6.5-1.6-2.7-2.4-5.7-2.4-8.9v-9c0-3.2.8-6.2 2.4-8.9 1.6-2.7 3.7-4.9 6.4-6.5 2.7-1.6 5.7-2.4 8.9-2.4 2.5 0 4.9.5 7.2 1.5s4.2 2.4 5.9 4.3c.3.3.5.7.5 1.2s-.2 1-.7 1.5l-3.2 3.2c-.3.3-.7.5-1.2.5-.4 0-.9-.2-1.3-.7-1.9-1.9-4.3-2.9-7.2-2.9-2.4 0-4.5.9-6.2 2.6-1.7 1.7-2.6 3.8-2.6 6.2v9.8c0 2.4.9 4.5 2.6 6.2 1.7 1.7 3.8 2.6 6.2 2.6 2.9 0 5.3-1 7.2-2.9.4-.4.8-.7 1.3-.7.4 0 .8.2 1.2.5l3.2 3.2c.4.4.7.9.7 1.5 0 .4-.2.8-.5 1.2-1.6 1.8-3.6 3.3-5.9 4.3-2.3 1-4.7 1.5-7.2 1.5-3.3 0-6.2-.8-8.9-2.4z"/><path class="st1" d="M-2283.8-383.4h1.9v15.1h9.4v1.7h-11.3v-16.8zM-2213.2-383.4h-1.8l-7.6 16.9h1.9l6.6-14.7 6.5 14.7h2l-7.6-16.9zM-2154.4-383.4h7.1c1.9 0 3.4.6 4.4 1.5.7.7 1.1 1.6 1.1 2.7 0 2.2-1.3 3.3-2.7 3.9 2 .6 3.6 1.8 3.6 4.1 0 2.9-2.4 4.6-6.1 4.6h-7.4v-16.8zm10.7 4.5c0-1.7-1.3-2.7-3.7-2.7h-5.1v5.8h5c2.2-.1 3.8-1.1 3.8-3.1zm-3.5 4.7h-5.3v5.9h5.6c2.5 0 4.1-1.1 4.1-3 0-1.8-1.5-2.9-4.4-2.9zM-2090.3-369.1l1.2-1.4c1.7 1.5 3.4 2.3 5.7 2.3 2.2 0 3.7-1.2 3.7-2.8 0-1.5-.8-2.4-4.4-3.1-3.9-.8-5.6-2-5.6-4.7 0-2.6 2.3-4.5 5.5-4.5 2.4 0 4.2.7 5.9 2l-1.1 1.4c-1.6-1.2-3.1-1.8-4.8-1.8-2.2 0-3.6 1.2-3.6 2.6 0 1.5.9 2.4 4.5 3.2 3.7.8 5.5 2.1 5.5 4.6 0 2.8-2.4 4.6-5.7 4.6-2.7.2-4.8-.7-6.8-2.4z"/><g><path class="st3" d="M-2353.2-370.6c0 1.5-.8 2.9-2.1 3.6-.6.4-1.3.5-2 .5h-83.5c-1.3 0-2.4-.6-3.2-1.5l-.3-.3c-.1-.1-.2-.3-.2-.4-.3-.6-.5-1.2-.5-1.9 0-1 .4-1.9 1-2.8.2-.3 29.2-43.9 29.2-44l-7.1-10.6-.6-.9c-.5-1-.8-2.1-.8-3.2 0-.8.1-1.6.4-2.3.3-.9 3.4-5.5 3.9-6.2l15.5 23.3-27.6 41.4h63.8l-7.3-10.9h11.3c.1.2 8.5 12.8 8.9 13.3.3.4.6.9.8 1.3.3.5.4 1.1.4 1.6z"/><path class="st3" d="M-2378.9-410.5h-11.3l-21.8-32.7c-.8-1.1-1.2-2.4-1.2-3.9 0-1 .3-2.1.7-3 .3-.6 3.5-5.3 3.5-5.4l30.1 45z"/><path class="st2" d="M-2308.7-366.5h-8.1c-1.9 0-3.5-.8-4.6-2.2-.1-.1-.1-.2-.1-.2s-.1-.1-.1-.2l-16.6-24.9h-44.5c-1.1 0-2.2 0-3.3-.4-1.9-.6-3.3-2-4.4-3.6-.3-.4-3.3-5.1-3.6-5.4h49.6l-34.1-51.2-10.5 15.8-5.6-8.5 16.2-24.3 69.7 105.1z"/></g><g><path class="st2" d="M-2281.9-167.3c-2.6-2.4-3.9-5.4-3.9-9.2 0-3.4 1.2-6.3 3.6-8.5 2.4-2.3 5.7-3.7 10.1-4.4 1.1-.1 2.1-.2 3.1-.4 3.5-.4 5.6-.7 6.3-.9 1.8-.3 2.8-1.3 2.8-3.1s-.8-3.3-2.3-4.4c-1.5-1.1-3.4-1.7-5.7-1.7-4 0-7 1.5-8.8 4.4-.4.6-.9 1-1.4 1-.4 0-.7-.1-1-.3l-4.2-2.8c-.4-.3-.7-.7-.7-1.3 0-.1 0-.4.1-.7 1.4-2.7 3.6-4.9 6.4-6.4 2.8-1.5 6-2.3 9.6-2.3 3.3 0 6.2.6 8.6 1.9 2.5 1.2 4.4 3 5.8 5.3 1.4 2.3 2 4.9 2 7.9v28c0 .4-.1.8-.4 1.1-.3.3-.7.4-1.1.4h-5.1c-.4 0-.8-.1-1.1-.4-.3-.3-.4-.7-.4-1.2v-3.8c-3.4 3.6-7.5 5.4-12.2 5.4-4.1-.1-7.5-1.3-10.1-3.6zm16.4-6c1.7-1 3.1-2.3 4.2-3.9s1.6-3.3 1.6-5.1v-1.5l-5.6.8c-3 .3-5 .6-5.9.8-4.1.7-6.1 2.5-6.1 5.3 0 1.5.6 2.8 1.7 3.7 1.1.9 2.7 1.4 4.5 1.4 2 0 3.8-.5 5.6-1.5zM-2233.3-165.1c-2.5-.8-4.7-2-6.6-3.5-.2-.2-.4-.5-.5-.8-.1-.3-.1-.6 0-.9.3-.8 1.2-2.4 2.5-4.7.4-.6.9-.9 1.5-.9.3 0 .7.1 1 .3 1.8 1.2 3.5 2.1 5 2.7 1.6.6 3.2.9 5 .9 2.1 0 3.7-.4 4.8-1.2 1.1-.8 1.6-1.8 1.6-3.2 0-1.1-.5-2-1.4-2.7-.9-.6-2.7-1.5-5.4-2.5l-2.7-1c-2.2-.8-4-1.8-5.6-2.7-1.5-1-2.8-2.3-3.9-4-1.1-1.7-1.6-3.8-1.6-6.3 0-3.9 1.3-7 3.9-9.4 2.6-2.3 6.1-3.5 10.4-3.5 2.5 0 5 .4 7.5 1.2 2.4.8 4.6 2 6.4 3.4.2.2.4.5.5.8.1.3.1.6 0 .9-.4 1-1.2 2.6-2.2 4.7-.3.5-.8.8-1.4.8-.3 0-.7-.1-1-.3-3.4-2.2-6.6-3.4-9.5-3.4-1.7 0-3 .4-4 1.1-1 .7-1.5 1.7-1.5 3s.5 2.4 1.6 3.2c1.1.9 3.1 1.9 6 3 2.8 1.1 5 2 6.6 2.8s3 2 4.3 3.7c1.3 1.7 2 3.8 2 6.4 0 2.6-.7 4.9-2 6.9s-3.2 3.5-5.5 4.6c-2.4 1.1-5.1 1.6-8.1 1.6-2.7.3-5.2-.1-7.7-1zM-2191.4-151c-.3-.4-.3-.9-.1-1.5l3.9-11-14.6-42.5c-.1-.3-.1-.5-.1-.7 0-.5.2-.9.5-1.2.3-.3.8-.5 1.3-.5h5.2c.5 0 1 .1 1.4.4.4.3.7.7.9 1.2l10.1 30.6 10.1-30.6c.1-.5.4-.9.9-1.2.4-.3.9-.4 1.4-.4h4.8c.5 0 1 .2 1.3.5.3.3.5.7.5 1.2 0 .1-.1.4-.1.7l-18.7 54c-.2.5-.5.9-.9 1.2-.4.3-.9.4-1.4.4h-4.9c-.8 0-1.2-.2-1.5-.6zM-2153.4-164.3c-.3-.3-.4-.7-.4-1.1v-41.4c0-.4.1-.8.4-1.1.3-.3.7-.4 1.1-.4h5.8c.4 0 .8.1 1.1.4.3.3.4.7.4 1.1v4.4c1.4-1.9 3-3.4 5-4.4 1.9-1.1 4-1.6 6.3-1.6 2.8 0 5.4.7 7.6 2 2.3 1.3 4 3.2 5.3 5.6 1.3 2.4 1.9 5.1 1.9 8v27.4c0 .4-.1.8-.4 1.1-.3.3-.7.4-1.1.4h-5.8c-.4 0-.8-.1-1.1-.4-.3-.3-.4-.7-.4-1.1v-26.3c0-2.6-.7-4.7-2-6.1-1.3-1.4-3.2-2.1-5.7-2.1-2.9 0-5.3 1-7 2.9-1.7 1.9-2.6 4.6-2.6 7.9v23.7c0 .4-.1.8-.4 1.1-.3.3-.7.4-1.1.4h-5.8c-.5.1-.8-.1-1.1-.4zM-2098.2-166.2c-2.7-1.6-4.9-3.7-6.4-6.5-1.6-2.7-2.4-5.7-2.4-8.9v-9c0-3.2.8-6.2 2.4-8.9 1.6-2.7 3.7-4.9 6.4-6.5 2.7-1.6 5.7-2.4 8.9-2.4 2.5 0 4.9.5 7.2 1.5s4.2 2.4 5.9 4.3c.3.3.5.7.5 1.2s-.2 1-.7 1.5l-3.2 3.2c-.3.3-.7.5-1.2.5-.4 0-.9-.2-1.3-.7-1.9-1.9-4.3-2.9-7.2-2.9-2.4 0-4.5.9-6.2 2.6-1.7 1.7-2.6 3.8-2.6 6.2v9.8c0 2.4.9 4.5 2.6 6.2 1.7 1.7 3.8 2.6 6.2 2.6 2.9 0 5.3-1 7.2-2.9.4-.4.8-.7 1.3-.7.4 0 .8.2 1.2.5l3.2 3.2c.4.4.7.9.7 1.5 0 .4-.2.8-.5 1.2-1.6 1.8-3.6 3.3-5.9 4.3-2.3 1-4.7 1.5-7.2 1.5-3.3 0-6.2-.8-8.9-2.4z"/><g><path class="st2" d="M-2283.8-132.6h1.9v15.1h9.4v1.7h-11.3v-16.8zM-2213.2-132.6h-1.8l-7.6 16.9h1.9l6.6-14.7 6.5 14.7h2l-7.6-16.9zM-2154.4-132.6h7.1c1.9 0 3.4.6 4.4 1.5.7.7 1.1 1.6 1.1 2.7 0 2.2-1.3 3.3-2.7 3.9 2 .6 3.6 1.8 3.6 4.1 0 2.9-2.4 4.6-6.1 4.6h-7.4v-16.8zm10.7 4.5c0-1.7-1.3-2.7-3.7-2.7h-5.1v5.8h5c2.2 0 3.8-1.1 3.8-3.1zm-3.5 4.8h-5.3v5.9h5.6c2.5 0 4.1-1.1 4.1-3s-1.5-2.9-4.4-2.9zM-2090.3-118.3l1.2-1.4c1.7 1.5 3.4 2.3 5.7 2.3 2.2 0 3.7-1.2 3.7-2.8 0-1.5-.8-2.4-4.4-3.1-3.9-.8-5.6-2-5.6-4.7 0-2.6 2.3-4.5 5.5-4.5 2.4 0 4.2.7 5.9 2l-1.1 1.4c-1.6-1.2-3.1-1.8-4.8-1.8-2.2 0-3.6 1.2-3.6 2.6 0 1.5.9 2.4 4.5 3.2 3.7.8 5.5 2.1 5.5 4.6 0 2.8-2.4 4.6-5.7 4.6-2.7.2-4.8-.7-6.8-2.4z"/></g><g><path class="st2" d="M-2353.2-119.8c0 1.5-.8 2.9-2.1 3.6-.6.4-1.3.5-2 .5h-83.5c-1.3 0-2.4-.6-3.2-1.5l-.3-.3c-.1-.1-.2-.3-.2-.4-.3-.6-.5-1.2-.5-1.9 0-1 .4-1.9 1-2.8.2-.3 29.2-43.9 29.2-44l-7.1-10.6-.6-.9c-.5-1-.8-2.1-.8-3.2 0-.8.1-1.6.4-2.3.3-.9 3.4-5.5 3.9-6.2l15.5 23.3-27.6 41.4h63.8l-7.3-10.9h11.3c.1.2 8.5 12.8 8.9 13.3.3.4.6.9.8 1.3.3.5.4 1.1.4 1.6z"/><path class="st2" d="M-2378.9-159.7h-11.3l-21.8-32.7c-.8-1.1-1.2-2.4-1.2-3.9 0-1 .3-2.1.7-3 .3-.6 3.5-5.3 3.5-5.4l30.1 45z"/><path class="st2" d="M-2308.7-115.7h-8.1c-1.9 0-3.5-.8-4.6-2.2-.1-.1-.1-.2-.1-.2s-.1-.1-.1-.2l-16.6-24.9h-44.5c-1.1 0-2.2 0-3.3-.4-1.9-.6-3.3-2-4.4-3.6-.3-.4-3.3-5.1-3.6-5.4h49.6l-34.1-51.2-10.5 15.8-5.6-8.5 16.2-24.3 69.7 105.1z"/></g></g><g><path class="st3" d="M-2281.9 89.9c-2.6-2.4-3.9-5.4-3.9-9.2 0-3.4 1.2-6.3 3.6-8.5 2.4-2.3 5.7-3.7 10.1-4.4 1.1-.1 2.1-.2 3.1-.4 3.5-.4 5.6-.7 6.3-.9 1.8-.3 2.8-1.3 2.8-3.1s-.8-3.3-2.3-4.4c-1.5-1.1-3.4-1.7-5.7-1.7-4 0-7 1.5-8.8 4.4-.4.6-.9 1-1.4 1-.4 0-.7-.1-1-.3l-4.2-2.8c-.4-.3-.7-.7-.7-1.3 0-.1 0-.4.1-.7 1.4-2.7 3.6-4.9 6.4-6.4 2.8-1.5 6-2.3 9.6-2.3 3.3 0 6.2.6 8.6 1.9 2.5 1.2 4.4 3 5.8 5.3 1.4 2.3 2 4.9 2 7.9v28c0 .4-.1.8-.4 1.1-.3.3-.7.4-1.1.4h-5.1c-.4 0-.8-.1-1.1-.4-.3-.3-.4-.7-.4-1.2v-3.8c-3.4 3.6-7.5 5.4-12.2 5.4-4.1 0-7.5-1.2-10.1-3.6zm16.4-5.9c1.7-1 3.1-2.3 4.2-3.9s1.6-3.3 1.6-5.1v-1.5l-5.6.8c-3 .3-5 .6-5.9.8-4.1.7-6.1 2.5-6.1 5.3 0 1.5.6 2.8 1.7 3.7 1.1.9 2.7 1.4 4.5 1.4 2 0 3.8-.5 5.6-1.5zM-2233.3 92.2c-2.5-.8-4.7-2-6.6-3.5-.2-.2-.4-.5-.5-.8-.1-.3-.1-.6 0-.9.3-.8 1.2-2.4 2.5-4.7.4-.6.9-.9 1.5-.9.3 0 .7.1 1 .3 1.8 1.2 3.5 2.1 5 2.7 1.6.6 3.2.9 5 .9 2.1 0 3.7-.4 4.8-1.2 1.1-.8 1.6-1.8 1.6-3.2 0-1.1-.5-2-1.4-2.7-.9-.6-2.7-1.5-5.4-2.5l-2.7-1c-2.2-.8-4-1.8-5.6-2.7-1.5-1-2.8-2.3-3.9-4-1.1-1.7-1.6-3.8-1.6-6.3 0-3.9 1.3-7 3.9-9.4 2.6-2.3 6.1-3.5 10.4-3.5 2.5 0 5 .4 7.5 1.2 2.4.8 4.6 2 6.4 3.4.2.2.4.5.5.8.1.3.1.6 0 .9-.4 1-1.2 2.6-2.2 4.7-.3.5-.8.8-1.4.8-.3 0-.7-.1-1-.3-3.4-2.2-6.6-3.4-9.5-3.4-1.7 0-3 .4-4 1.1-1 .7-1.5 1.7-1.5 3s.5 2.4 1.6 3.2c1.1.9 3.1 1.9 6 3 2.8 1.1 5 2 6.6 2.8 1.6.8 3 2 4.3 3.7 1.3 1.7 2 3.8 2 6.4 0 2.6-.7 4.9-2 6.9s-3.2 3.5-5.5 4.6c-2.4 1.1-5.1 1.6-8.1 1.6-2.7.3-5.2-.1-7.7-1zM-2191.4 106.3c-.3-.4-.3-.9-.1-1.5l3.9-11-14.6-42.5c-.1-.3-.1-.5-.1-.7 0-.5.2-.9.5-1.2.3-.3.8-.5 1.3-.5h5.2c.5 0 1 .1 1.4.4.4.3.7.7.9 1.2l10.1 30.6 10.1-30.6c.1-.5.4-.9.9-1.2.4-.3.9-.4 1.4-.4h4.8c.5 0 1 .2 1.3.5.3.3.5.7.5 1.2 0 .1-.1.4-.1.7l-18.7 54c-.2.5-.5.9-.9 1.2-.4.3-.9.4-1.4.4h-4.9c-.8 0-1.2-.2-1.5-.6zM-2153.4 93c-.3-.3-.4-.7-.4-1.1V50.5c0-.4.1-.8.4-1.1.3-.3.7-.4 1.1-.4h5.8c.4 0 .8.1 1.1.4.3.3.4.7.4 1.1v4.4c1.4-1.9 3-3.4 5-4.4 1.9-1.1 4-1.6 6.3-1.6 2.8 0 5.4.7 7.6 2 2.3 1.3 4 3.2 5.3 5.6 1.3 2.4 1.9 5.1 1.9 8v27.4c0 .4-.1.8-.4 1.1-.3.3-.7.4-1.1.4h-5.8c-.4 0-.8-.1-1.1-.4-.3-.3-.4-.7-.4-1.1V65.6c0-2.6-.7-4.7-2-6.1-1.3-1.4-3.2-2.1-5.7-2.1-2.9 0-5.3 1-7 2.9-1.7 1.9-2.6 4.6-2.6 7.9v23.7c0 .4-.1.8-.4 1.1-.3.3-.7.4-1.1.4h-5.8c-.5.1-.8-.1-1.1-.4zM-2098.2 91.1c-2.7-1.6-4.9-3.7-6.4-6.5-1.6-2.7-2.4-5.7-2.4-8.9v-9c0-3.2.8-6.2 2.4-8.9 1.6-2.7 3.7-4.9 6.4-6.5 2.7-1.6 5.7-2.4 8.9-2.4 2.5 0 4.9.5 7.2 1.5s4.2 2.4 5.9 4.3c.3.3.5.7.5 1.2s-.2 1-.7 1.5l-3.2 3.2c-.3.3-.7.5-1.2.5-.4 0-.9-.2-1.3-.7-1.9-1.9-4.3-2.9-7.2-2.9-2.4 0-4.5.9-6.2 2.6-1.7 1.7-2.6 3.8-2.6 6.2V76c0 2.4.9 4.5 2.6 6.2 1.7 1.7 3.8 2.6 6.2 2.6 2.9 0 5.3-1 7.2-2.9.4-.4.8-.7 1.3-.7.4 0 .8.2 1.2.5l3.2 3.2c.4.4.7.9.7 1.5 0 .4-.2.8-.5 1.2-1.6 1.8-3.6 3.3-5.9 4.3-2.3 1-4.7 1.5-7.2 1.5-3.3.1-6.2-.7-8.9-2.3z"/><g><path class="st3" d="M-2283.8 124.7h1.9v15.1h9.4v1.7h-11.3v-16.8zM-2213.2 124.7h-1.8l-7.6 16.9h1.9l6.6-14.7 6.5 14.7h2l-7.6-16.9zM-2154.4 124.7h7.1c1.9 0 3.4.6 4.4 1.5.7.7 1.1 1.6 1.1 2.7 0 2.2-1.3 3.3-2.7 3.9 2 .6 3.6 1.8 3.6 4.1 0 2.9-2.4 4.6-6.1 4.6h-7.4v-16.8zm10.7 4.5c0-1.7-1.3-2.7-3.7-2.7h-5.1v5.8h5c2.2-.1 3.8-1.1 3.8-3.1zm-3.5 4.7h-5.3v5.9h5.6c2.5 0 4.1-1.1 4.1-3 0-1.8-1.5-2.9-4.4-2.9zM-2090.3 139l1.2-1.4c1.7 1.5 3.4 2.3 5.7 2.3 2.2 0 3.7-1.2 3.7-2.8 0-1.5-.8-2.4-4.4-3.1-3.9-.8-5.6-2-5.6-4.7 0-2.6 2.3-4.5 5.5-4.5 2.4 0 4.2.7 5.9 2l-1.1 1.4c-1.6-1.2-3.1-1.8-4.8-1.8-2.2 0-3.6 1.2-3.6 2.6 0 1.5.9 2.4 4.5 3.2 3.7.8 5.5 2.1 5.5 4.6 0 2.8-2.4 4.6-5.7 4.6-2.7.2-4.8-.7-6.8-2.4z"/></g><g><path class="st3" d="M-2353.2 137.5c0 1.5-.8 2.9-2.1 3.6-.6.4-1.3.5-2 .5h-83.5c-1.3 0-2.4-.6-3.2-1.5l-.3-.3c-.1-.1-.2-.3-.2-.4-.3-.6-.5-1.2-.5-1.9 0-1 .4-1.9 1-2.8.2-.3 29.2-43.9 29.2-44l-7.1-10.6-.6-.9c-.5-1-.8-2.1-.8-3.2 0-.8.1-1.6.4-2.3.3-.9 3.4-5.5 3.9-6.2l15.5 23.3-27.6 41.4h63.8l-7.3-10.9h11.3c.1.2 8.5 12.8 8.9 13.3.3.4.6.9.8 1.3.3.5.4 1.1.4 1.6z"/><path class="st3" d="M-2378.9 97.6h-11.3l-21.8-32.7c-.8-1.1-1.2-2.4-1.2-3.9 0-1 .3-2.1.7-3 .3-.6 3.5-5.3 3.5-5.4l30.1 45z"/><path class="st3" d="M-2308.7 141.6h-8.1c-1.9 0-3.5-.8-4.6-2.2-.1-.1-.1-.2-.1-.2s-.1-.1-.1-.2l-16.6-24.9h-44.5c-1.1 0-2.2 0-3.3-.4-1.9-.6-3.3-2-4.4-3.6-.3-.4-3.3-5.1-3.6-5.4h49.6l-34.1-51.2-10.5 15.8-5.6-8.5 16.2-24.3 69.7 105.1z"/></g></g><g><path d="M-1261.9-414.1c-2.6-2.4-3.9-5.4-3.9-9.2 0-3.4 1.2-6.3 3.6-8.5 2.4-2.3 5.7-3.7 10.1-4.4 1.1-.1 2.1-.2 3.1-.4 3.5-.4 5.6-.7 6.3-.9 1.8-.3 2.8-1.3 2.8-3.1s-.8-3.3-2.3-4.4-3.4-1.7-5.7-1.7c-4 0-7 1.5-8.8 4.4-.4.6-.9 1-1.4 1-.4 0-.7-.1-1-.3l-4.2-2.8c-.4-.3-.7-.7-.7-1.3 0-.1 0-.4.1-.7 1.4-2.7 3.6-4.9 6.4-6.4 2.8-1.5 6-2.3 9.6-2.3 3.3 0 6.2.6 8.6 1.9 2.5 1.2 4.4 3 5.8 5.3 1.4 2.3 2 4.9 2 7.9v28c0 .4-.1.8-.4 1.1-.3.3-.7.4-1.1.4h-5.1c-.4 0-.8-.1-1.1-.4-.3-.3-.4-.7-.4-1.2v-3.8c-3.4 3.6-7.5 5.4-12.2 5.4-4.1-.1-7.5-1.3-10.1-3.6zm16.4-5.9c1.7-1 3.1-2.3 4.2-3.9s1.6-3.3 1.6-5.1v-1.5l-5.6.8c-3 .3-5 .6-5.9.8-4.1.7-6.1 2.5-6.1 5.3 0 1.5.6 2.8 1.7 3.7 1.1.9 2.7 1.4 4.5 1.4 2 0 3.8-.5 5.6-1.5zM-1213.3-411.8c-2.5-.8-4.7-2-6.6-3.5-.2-.2-.4-.5-.5-.8-.1-.3-.1-.6 0-.9.3-.8 1.2-2.4 2.5-4.7.4-.6.9-.9 1.5-.9.3 0 .7.1 1 .3 1.8 1.2 3.5 2.1 5 2.7 1.6.6 3.2.9 5 .9 2.1 0 3.7-.4 4.8-1.2 1.1-.8 1.6-1.8 1.6-3.2 0-1.1-.5-2-1.4-2.7-.9-.6-2.7-1.5-5.4-2.5l-2.7-1c-2.2-.8-4-1.8-5.6-2.7s-2.8-2.3-3.9-4c-1.1-1.7-1.6-3.8-1.6-6.3 0-3.9 1.3-7 3.9-9.4 2.6-2.3 6.1-3.5 10.4-3.5 2.5 0 5 .4 7.5 1.2 2.4.8 4.6 2 6.4 3.4.2.2.4.5.5.8.1.3.1.6 0 .9-.4 1-1.2 2.6-2.2 4.7-.3.5-.8.8-1.4.8-.3 0-.7-.1-1-.3-3.4-2.2-6.6-3.4-9.5-3.4-1.7 0-3 .4-4 1.1-1 .7-1.5 1.7-1.5 3s.5 2.4 1.6 3.2c1.1.9 3.1 1.9 6 3 2.8 1.1 5 2 6.6 2.8 1.6.8 3 2 4.3 3.7 1.3 1.7 2 3.8 2 6.4 0 2.6-.7 4.9-2 6.9s-3.2 3.5-5.5 4.6c-2.4 1.1-5.1 1.6-8.1 1.6-2.7.2-5.2-.2-7.7-1zM-1171.4-397.8c-.3-.4-.3-.9-.1-1.5l3.9-11-14.6-42.5c-.1-.3-.1-.5-.1-.7 0-.5.2-.9.5-1.2.3-.3.8-.5 1.3-.5h5.2c.5 0 1 .1 1.4.4.4.3.7.7.9 1.2l10.1 30.6 10.1-30.6c.1-.5.4-.9.9-1.2.4-.3.9-.4 1.4-.4h4.8c.5 0 1 .2 1.3.5.3.3.5.7.5 1.2 0 .1-.1.4-.1.7l-18.7 54c-.2.5-.5.9-.9 1.2-.4.3-.9.4-1.4.4h-4.9c-.8.1-1.2-.2-1.5-.6zM-1133.4-411c-.3-.3-.4-.7-.4-1.1v-41.4c0-.4.1-.8.4-1.1.3-.3.7-.4 1.1-.4h5.8c.4 0 .8.1 1.1.4.3.3.4.7.4 1.1v4.4c1.4-1.9 3-3.4 5-4.4 1.9-1.1 4-1.6 6.3-1.6 2.8 0 5.4.7 7.6 2 2.3 1.3 4 3.2 5.3 5.6s1.9 5.1 1.9 8v27.4c0 .4-.1.8-.4 1.1-.3.3-.7.4-1.1.4h-5.8c-.4 0-.8-.1-1.1-.4-.3-.3-.4-.7-.4-1.1v-26.3c0-2.6-.7-4.7-2-6.1-1.3-1.4-3.2-2.1-5.7-2.1-2.9 0-5.3 1-7 2.9-1.7 1.9-2.6 4.6-2.6 7.9v23.7c0 .4-.1.8-.4 1.1-.3.3-.7.4-1.1.4h-5.8c-.5 0-.8-.1-1.1-.4zM-1078.2-413c-2.7-1.6-4.9-3.7-6.4-6.5-1.6-2.7-2.4-5.7-2.4-8.9v-9c0-3.2.8-6.2 2.4-8.9 1.6-2.7 3.7-4.9 6.4-6.5 2.7-1.6 5.7-2.4 8.9-2.4 2.5 0 4.9.5 7.2 1.5s4.2 2.4 5.9 4.3c.3.3.5.7.5 1.2s-.2 1-.7 1.5l-3.2 3.2c-.3.3-.7.5-1.2.5-.4 0-.9-.2-1.3-.7-1.9-1.9-4.3-2.9-7.2-2.9-2.4 0-4.5.9-6.2 2.6-1.7 1.7-2.6 3.8-2.6 6.2v9.8c0 2.4.9 4.5 2.6 6.2 1.7 1.7 3.8 2.6 6.2 2.6 2.9 0 5.3-1 7.2-2.9.4-.4.8-.7 1.3-.7.4 0 .8.2 1.2.5l3.2 3.2c.4.4.7.9.7 1.5 0 .4-.2.8-.5 1.2-1.6 1.8-3.6 3.3-5.9 4.3-2.3 1-4.7 1.5-7.2 1.5-3.3 0-6.2-.8-8.9-2.4z"/><g><path d="M-1263.8-379.3h1.9v15.1h9.4v1.7h-11.3v-16.8zM-1193.2-379.3h-1.8l-7.6 16.9h1.9l6.6-14.7 6.5 14.7h2l-7.6-16.9zM-1134.4-379.3h7.1c1.9 0 3.4.6 4.4 1.5.7.7 1.1 1.6 1.1 2.7 0 2.2-1.3 3.3-2.7 3.9 2 .6 3.6 1.8 3.6 4.1 0 2.9-2.4 4.6-6.1 4.6h-7.4v-16.8zm10.7 4.4c0-1.7-1.3-2.7-3.7-2.7h-5.1v5.8h5c2.2 0 3.8-1 3.8-3.1zm-3.5 4.8h-5.3v5.9h5.6c2.5 0 4.1-1.1 4.1-3s-1.5-2.9-4.4-2.9zM-1070.3-365.1l1.2-1.4c1.7 1.5 3.4 2.3 5.7 2.3 2.2 0 3.7-1.2 3.7-2.8 0-1.5-.8-2.4-4.4-3.1-3.9-.8-5.6-2-5.6-4.7 0-2.6 2.3-4.5 5.5-4.5 2.4 0 4.2.7 5.9 2l-1.1 1.4c-1.6-1.2-3.1-1.8-4.8-1.8-2.2 0-3.6 1.2-3.6 2.6 0 1.5.9 2.4 4.5 3.2 3.7.8 5.5 2.1 5.5 4.6 0 2.8-2.4 4.6-5.7 4.6-2.7.2-4.8-.6-6.8-2.4z"/></g><g><path d="M-1333.2-366.5c0 1.5-.8 2.9-2.1 3.6-.6.4-1.3.5-2 .5h-83.5c-1.3 0-2.4-.6-3.2-1.5l-.3-.3c-.1-.1-.2-.3-.2-.4-.3-.6-.5-1.2-.5-1.9 0-1 .4-1.9 1-2.8.2-.3 29.2-43.9 29.2-44l-7.1-10.6-.6-.9c-.5-1-.8-2.1-.8-3.2 0-.8.1-1.6.4-2.3.3-.9 3.4-5.5 3.9-6.2l15.5 23.3-27.6 41.4h63.8l-7.3-10.9h11.3c.1.2 8.5 12.8 8.9 13.3.3.4.6.9.8 1.3.3.4.4 1 .4 1.6z"/><path d="M-1358.9-406.5h-11.3l-21.8-32.7c-.8-1.1-1.2-2.4-1.2-3.9 0-1 .3-2.1.7-3 .3-.6 3.5-5.3 3.5-5.4l30.1 45z"/><path d="M-1288.7-362.5h-8.1c-1.9 0-3.5-.8-4.6-2.2-.1-.1-.1-.2-.1-.2s-.1-.1-.1-.2l-16.6-24.9h-44.5c-1.1 0-2.2 0-3.3-.4-1.9-.6-3.3-2-4.4-3.6-.3-.4-3.3-5.1-3.6-5.4h49.6l-34.1-51.2-10.5 15.8-5.6-8.5 16.2-24.3 69.7 105.1z"/></g></g><g><path class="st1" d="M-2281.9 605.9c-2.6-2.4-3.9-5.4-3.9-9.2 0-3.4 1.2-6.3 3.6-8.5 2.4-2.3 5.7-3.7 10.1-4.4 1.1-.1 2.1-.2 3.1-.4 3.5-.4 5.6-.7 6.3-.9 1.8-.3 2.8-1.3 2.8-3.1s-.8-3.3-2.3-4.4c-1.5-1.1-3.4-1.7-5.7-1.7-4 0-7 1.5-8.8 4.4-.4.6-.9 1-1.4 1-.4 0-.7-.1-1-.3l-4.2-2.8c-.4-.3-.7-.7-.7-1.3 0-.1 0-.4.1-.7 1.4-2.7 3.6-4.9 6.4-6.4 2.8-1.5 6-2.3 9.6-2.3 3.3 0 6.2.6 8.6 1.9 2.5 1.2 4.4 3 5.8 5.3 1.4 2.3 2 4.9 2 7.9v28c0 .4-.1.8-.4 1.1-.3.3-.7.4-1.1.4h-5.1c-.4 0-.8-.1-1.1-.4-.3-.3-.4-.7-.4-1.2v-3.8c-3.4 3.6-7.5 5.4-12.2 5.4-4.1-.1-7.5-1.3-10.1-3.6zm16.4-5.9c1.7-1 3.1-2.3 4.2-3.9s1.6-3.3 1.6-5.1v-1.5l-5.6.8c-3 .3-5 .6-5.9.8-4.1.7-6.1 2.5-6.1 5.3 0 1.5.6 2.8 1.7 3.7 1.1.9 2.7 1.4 4.5 1.4 2 0 3.8-.5 5.6-1.5zM-2233.3 608.2c-2.5-.8-4.7-2-6.6-3.5-.2-.2-.4-.5-.5-.8-.1-.3-.1-.6 0-.9.3-.8 1.2-2.4 2.5-4.7.4-.6.9-.9 1.5-.9.3 0 .7.1 1 .3 1.8 1.2 3.5 2.1 5 2.7 1.6.6 3.2.9 5 .9 2.1 0 3.7-.4 4.8-1.2 1.1-.8 1.6-1.8 1.6-3.2 0-1.1-.5-2-1.4-2.7-.9-.6-2.7-1.5-5.4-2.5l-2.7-1c-2.2-.8-4-1.8-5.6-2.7-1.5-1-2.8-2.3-3.9-4-1.1-1.7-1.6-3.8-1.6-6.3 0-3.9 1.3-7 3.9-9.4 2.6-2.3 6.1-3.5 10.4-3.5 2.5 0 5 .4 7.5 1.2 2.4.8 4.6 2 6.4 3.4.2.2.4.5.5.8.1.3.1.6 0 .9-.4 1-1.2 2.6-2.2 4.7-.3.5-.8.8-1.4.8-.3 0-.7-.1-1-.3-3.4-2.2-6.6-3.4-9.5-3.4-1.7 0-3 .4-4 1.1-1 .7-1.5 1.7-1.5 3s.5 2.4 1.6 3.2c1.1.9 3.1 1.9 6 3 2.8 1.1 5 2 6.6 2.8s3 2 4.3 3.7c1.3 1.7 2 3.8 2 6.4 0 2.6-.7 4.9-2 6.9s-3.2 3.5-5.5 4.6c-2.4 1.1-5.1 1.6-8.1 1.6-2.7.2-5.2-.2-7.7-1zM-2191.4 622.2c-.3-.4-.3-.9-.1-1.5l3.9-11-14.6-42.5c-.1-.3-.1-.5-.1-.7 0-.5.2-.9.5-1.2.3-.3.8-.5 1.3-.5h5.2c.5 0 1 .1 1.4.4.4.3.7.7.9 1.2l10.1 30.6 10.1-30.6c.1-.5.4-.9.9-1.2.4-.3.9-.4 1.4-.4h4.8c.5 0 1 .2 1.3.5.3.3.5.7.5 1.2 0 .1-.1.4-.1.7l-18.7 54c-.2.5-.5.9-.9 1.2-.4.3-.9.4-1.4.4h-4.9c-.8.1-1.2-.2-1.5-.6zM-2153.4 609c-.3-.3-.4-.7-.4-1.1v-41.4c0-.4.1-.8.4-1.1.3-.3.7-.4 1.1-.4h5.8c.4 0 .8.1 1.1.4.3.3.4.7.4 1.1v4.4c1.4-1.9 3-3.4 5-4.4 1.9-1.1 4-1.6 6.3-1.6 2.8 0 5.4.7 7.6 2 2.3 1.3 4 3.2 5.3 5.6s1.9 5.1 1.9 8v27.4c0 .4-.1.8-.4 1.1-.3.3-.7.4-1.1.4h-5.8c-.4 0-.8-.1-1.1-.4-.3-.3-.4-.7-.4-1.1v-26.3c0-2.6-.7-4.7-2-6.1-1.3-1.4-3.2-2.1-5.7-2.1-2.9 0-5.3 1-7 2.9-1.7 1.9-2.6 4.6-2.6 7.9v23.7c0 .4-.1.8-.4 1.1-.3.3-.7.4-1.1.4h-5.8c-.5 0-.8-.1-1.1-.4zM-2098.2 607c-2.7-1.6-4.9-3.7-6.4-6.5-1.6-2.7-2.4-5.7-2.4-8.9v-9c0-3.2.8-6.2 2.4-8.9 1.6-2.7 3.7-4.9 6.4-6.5 2.7-1.6 5.7-2.4 8.9-2.4 2.5 0 4.9.5 7.2 1.5s4.2 2.4 5.9 4.3c.3.3.5.7.5 1.2s-.2 1-.7 1.5l-3.2 3.2c-.3.3-.7.5-1.2.5-.4 0-.9-.2-1.3-.7-1.9-1.9-4.3-2.9-7.2-2.9-2.4 0-4.5.9-6.2 2.6-1.7 1.7-2.6 3.8-2.6 6.2v9.8c0 2.4.9 4.5 2.6 6.2 1.7 1.7 3.8 2.6 6.2 2.6 2.9 0 5.3-1 7.2-2.9.4-.4.8-.7 1.3-.7.4 0 .8.2 1.2.5l3.2 3.2c.4.4.7.9.7 1.5 0 .4-.2.8-.5 1.2-1.6 1.8-3.6 3.3-5.9 4.3-2.3 1-4.7 1.5-7.2 1.5-3.3 0-6.2-.8-8.9-2.4z"/><g><path class="st1" d="M-2283.8 640.7h1.9v15.1h9.4v1.7h-11.3v-16.8zM-2213.2 640.7h-1.8l-7.6 16.9h1.9l6.6-14.7 6.5 14.7h2l-7.6-16.9zM-2154.4 640.7h7.1c1.9 0 3.4.6 4.4 1.5.7.7 1.1 1.6 1.1 2.7 0 2.2-1.3 3.3-2.7 3.9 2 .6 3.6 1.8 3.6 4.1 0 2.9-2.4 4.6-6.1 4.6h-7.4v-16.8zm10.7 4.4c0-1.7-1.3-2.7-3.7-2.7h-5.1v5.8h5c2.2 0 3.8-1 3.8-3.1zm-3.5 4.8h-5.3v5.9h5.6c2.5 0 4.1-1.1 4.1-3s-1.5-2.9-4.4-2.9zM-2090.3 654.9l1.2-1.4c1.7 1.5 3.4 2.3 5.7 2.3 2.2 0 3.7-1.2 3.7-2.8 0-1.5-.8-2.4-4.4-3.1-3.9-.8-5.6-2-5.6-4.7 0-2.6 2.3-4.5 5.5-4.5 2.4 0 4.2.7 5.9 2l-1.1 1.4c-1.6-1.2-3.1-1.8-4.8-1.8-2.2 0-3.6 1.2-3.6 2.6 0 1.5.9 2.4 4.5 3.2 3.7.8 5.5 2.1 5.5 4.6 0 2.8-2.4 4.6-5.7 4.6-2.7.2-4.8-.6-6.8-2.4z"/></g><g><path class="st1" d="M-2353.2 653.5c0 1.5-.8 2.9-2.1 3.6-.6.4-1.3.5-2 .5h-83.5c-1.3 0-2.4-.6-3.2-1.5l-.3-.3c-.1-.1-.2-.3-.2-.4-.3-.6-.5-1.2-.5-1.9 0-1 .4-1.9 1-2.8.2-.3 29.2-43.9 29.2-44l-7.1-10.6-.6-.9c-.5-1-.8-2.1-.8-3.2 0-.8.1-1.6.4-2.3.3-.9 3.4-5.5 3.9-6.2l15.5 23.3-27.6 41.4h63.8l-7.3-10.9h11.3c.1.2 8.5 12.8 8.9 13.3.3.4.6.9.8 1.3.3.4.4 1 .4 1.6z"/><path class="st1" d="M-2378.9 613.5h-11.3l-21.8-32.7c-.8-1.1-1.2-2.4-1.2-3.9 0-1 .3-2.1.7-3 .3-.6 3.5-5.3 3.5-5.4l30.1 45z"/><path class="st1" d="M-2308.7 657.5h-8.1c-1.9 0-3.5-.8-4.6-2.2-.1-.1-.1-.2-.1-.2s-.1-.1-.1-.2l-16.6-24.9h-44.5c-1.1 0-2.2 0-3.3-.4-1.9-.6-3.3-2-4.4-3.6-.3-.4-3.3-5.1-3.6-5.4h49.6l-34.1-51.2-10.5 15.8-5.6-8.5 16.2-24.3 69.7 105.1z"/></g></g><g><path class="st4" d="M-2281.9 1105.9c-2.6-2.4-3.9-5.4-3.9-9.2 0-3.4 1.2-6.3 3.6-8.5 2.4-2.3 5.7-3.7 10.1-4.4 1.1-.1 2.1-.2 3.1-.4 3.5-.4 5.6-.7 6.3-.9 1.8-.3 2.8-1.3 2.8-3.1s-.8-3.3-2.3-4.4c-1.5-1.1-3.4-1.7-5.7-1.7-4 0-7 1.5-8.8 4.4-.4.6-.9 1-1.4 1-.4 0-.7-.1-1-.3l-4.2-2.8c-.4-.3-.7-.7-.7-1.3 0-.1 0-.4.1-.7 1.4-2.7 3.6-4.9 6.4-6.4 2.8-1.5 6-2.3 9.6-2.3 3.3 0 6.2.6 8.6 1.9 2.5 1.2 4.4 3 5.8 5.3 1.4 2.3 2 4.9 2 7.9v28c0 .4-.1.8-.4 1.1-.3.3-.7.4-1.1.4h-5.1c-.4 0-.8-.1-1.1-.4-.3-.3-.4-.7-.4-1.2v-3.8c-3.4 3.6-7.5 5.4-12.2 5.4-4.1-.1-7.5-1.3-10.1-3.6zm16.4-5.9c1.7-1 3.1-2.3 4.2-3.9s1.6-3.3 1.6-5.1v-1.5l-5.6.8c-3 .3-5 .6-5.9.8-4.1.7-6.1 2.5-6.1 5.3 0 1.5.6 2.8 1.7 3.7 1.1.9 2.7 1.4 4.5 1.4 2 0 3.8-.5 5.6-1.5zM-2233.3 1108.2c-2.5-.8-4.7-2-6.6-3.5-.2-.2-.4-.5-.5-.8-.1-.3-.1-.6 0-.9.3-.8 1.2-2.4 2.5-4.7.4-.6.9-.9 1.5-.9.3 0 .7.1 1 .3 1.8 1.2 3.5 2.1 5 2.7 1.6.6 3.2.9 5 .9 2.1 0 3.7-.4 4.8-1.2 1.1-.8 1.6-1.8 1.6-3.2 0-1.1-.5-2-1.4-2.7-.9-.6-2.7-1.5-5.4-2.5l-2.7-1c-2.2-.8-4-1.8-5.6-2.7-1.5-1-2.8-2.3-3.9-4-1.1-1.7-1.6-3.8-1.6-6.3 0-3.9 1.3-7 3.9-9.4 2.6-2.3 6.1-3.5 10.4-3.5 2.5 0 5 .4 7.5 1.2 2.4.8 4.6 2 6.4 3.4.2.2.4.5.5.8.1.3.1.6 0 .9-.4 1-1.2 2.6-2.2 4.7-.3.5-.8.8-1.4.8-.3 0-.7-.1-1-.3-3.4-2.2-6.6-3.4-9.5-3.4-1.7 0-3 .4-4 1.1-1 .7-1.5 1.7-1.5 3s.5 2.4 1.6 3.2c1.1.9 3.1 1.9 6 3 2.8 1.1 5 2 6.6 2.8 1.6.8 3 2 4.3 3.7 1.3 1.7 2 3.8 2 6.4 0 2.6-.7 4.9-2 6.9s-3.2 3.5-5.5 4.6c-2.4 1.1-5.1 1.6-8.1 1.6-2.7.2-5.2-.2-7.7-1zM-2191.4 1122.2c-.3-.4-.3-.9-.1-1.5l3.9-11-14.6-42.5c-.1-.3-.1-.5-.1-.7 0-.5.2-.9.5-1.2.3-.3.8-.5 1.3-.5h5.2c.5 0 1 .1 1.4.4.4.3.7.7.9 1.2l10.1 30.6 10.1-30.6c.1-.5.4-.9.9-1.2.4-.3.9-.4 1.4-.4h4.8c.5 0 1 .2 1.3.5.3.3.5.7.5 1.2 0 .1-.1.4-.1.7l-18.7 54c-.2.5-.5.9-.9 1.2-.4.3-.9.4-1.4.4h-4.9c-.8.1-1.2-.2-1.5-.6zM-2153.4 1109c-.3-.3-.4-.7-.4-1.1v-41.4c0-.4.1-.8.4-1.1.3-.3.7-.4 1.1-.4h5.8c.4 0 .8.1 1.1.4.3.3.4.7.4 1.1v4.4c1.4-1.9 3-3.4 5-4.4 1.9-1.1 4-1.6 6.3-1.6 2.8 0 5.4.7 7.6 2 2.3 1.3 4 3.2 5.3 5.6s1.9 5.1 1.9 8v27.4c0 .4-.1.8-.4 1.1-.3.3-.7.4-1.1.4h-5.8c-.4 0-.8-.1-1.1-.4-.3-.3-.4-.7-.4-1.1v-26.3c0-2.6-.7-4.7-2-6.1-1.3-1.4-3.2-2.1-5.7-2.1-2.9 0-5.3 1-7 2.9-1.7 1.9-2.6 4.6-2.6 7.9v23.7c0 .4-.1.8-.4 1.1-.3.3-.7.4-1.1.4h-5.8c-.5 0-.8-.1-1.1-.4zM-2098.2 1107c-2.7-1.6-4.9-3.7-6.4-6.5-1.6-2.7-2.4-5.7-2.4-8.9v-9c0-3.2.8-6.2 2.4-8.9 1.6-2.7 3.7-4.9 6.4-6.5 2.7-1.6 5.7-2.4 8.9-2.4 2.5 0 4.9.5 7.2 1.5s4.2 2.4 5.9 4.3c.3.3.5.7.5 1.2s-.2 1-.7 1.5l-3.2 3.2c-.3.3-.7.5-1.2.5-.4 0-.9-.2-1.3-.7-1.9-1.9-4.3-2.9-7.2-2.9-2.4 0-4.5.9-6.2 2.6-1.7 1.7-2.6 3.8-2.6 6.2v9.8c0 2.4.9 4.5 2.6 6.2 1.7 1.7 3.8 2.6 6.2 2.6 2.9 0 5.3-1 7.2-2.9.4-.4.8-.7 1.3-.7.4 0 .8.2 1.2.5l3.2 3.2c.4.4.7.9.7 1.5 0 .4-.2.8-.5 1.2-1.6 1.8-3.6 3.3-5.9 4.3-2.3 1-4.7 1.5-7.2 1.5-3.3 0-6.2-.8-8.9-2.4z"/><g><path class="st0" d="M-2283.8 1140.7h1.9v15.1h9.4v1.7h-11.3v-16.8zM-2213.2 1140.7h-1.8l-7.6 16.9h1.9l6.6-14.7 6.5 14.7h2l-7.6-16.9zM-2154.4 1140.7h7.1c1.9 0 3.4.6 4.4 1.5.7.7 1.1 1.6 1.1 2.7 0 2.2-1.3 3.3-2.7 3.9 2 .6 3.6 1.8 3.6 4.1 0 2.9-2.4 4.6-6.1 4.6h-7.4v-16.8zm10.7 4.4c0-1.7-1.3-2.7-3.7-2.7h-5.1v5.8h5c2.2 0 3.8-1 3.8-3.1zm-3.5 4.8h-5.3v5.9h5.6c2.5 0 4.1-1.1 4.1-3s-1.5-2.9-4.4-2.9zM-2090.3 1154.9l1.2-1.4c1.7 1.5 3.4 2.3 5.7 2.3 2.2 0 3.7-1.2 3.7-2.8 0-1.5-.8-2.4-4.4-3.1-3.9-.8-5.6-2-5.6-4.7 0-2.6 2.3-4.5 5.5-4.5 2.4 0 4.2.7 5.9 2l-1.1 1.4c-1.6-1.2-3.1-1.8-4.8-1.8-2.2 0-3.6 1.2-3.6 2.6 0 1.5.9 2.4 4.5 3.2 3.7.8 5.5 2.1 5.5 4.6 0 2.8-2.4 4.6-5.7 4.6-2.7.2-4.8-.6-6.8-2.4z"/></g><g><path class="st0" d="M-2353.2 1153.5c0 1.5-.8 2.9-2.1 3.6-.6.4-1.3.5-2 .5h-83.5c-1.3 0-2.4-.6-3.2-1.5l-.3-.3c-.1-.1-.2-.3-.2-.4-.3-.6-.5-1.2-.5-1.9 0-1 .4-1.9 1-2.8.2-.3 29.2-43.9 29.2-44l-7.1-10.6-.6-.9c-.5-1-.8-2.1-.8-3.2 0-.8.1-1.6.4-2.3.3-.9 3.4-5.5 3.9-6.2l15.5 23.3-27.6 41.4h63.8l-7.3-10.9h11.3c.1.2 8.5 12.8 8.9 13.3.3.4.6.9.8 1.3.3.4.4 1 .4 1.6z"/><path class="st0" d="M-2378.9 1113.5h-11.3l-21.8-32.7c-.8-1.1-1.2-2.4-1.2-3.9 0-1 .3-2.1.7-3 .3-.6 3.5-5.3 3.5-5.4l30.1 45z"/><path class="st4" d="M-2308.7 1157.5h-8.1c-1.9 0-3.5-.8-4.6-2.2-.1-.1-.1-.2-.1-.2s-.1-.1-.1-.2l-16.6-24.9h-44.5c-1.1 0-2.2 0-3.3-.4-1.9-.6-3.3-2-4.4-3.6-.3-.4-3.3-5.1-3.6-5.4h49.6l-34.1-51.2-10.5 15.8-5.6-8.5 16.2-24.3 69.7 105.1z"/></g></g><g><path class="st0" d="M-1261.9 86.3c-2.6-2.4-3.9-5.4-3.9-9.2 0-3.4 1.2-6.3 3.6-8.5 2.4-2.3 5.7-3.7 10.1-4.4 1.1-.1 2.1-.2 3.1-.4 3.5-.4 5.6-.7 6.3-.9 1.8-.3 2.8-1.3 2.8-3.1s-.8-3.3-2.3-4.4c-1.5-1.1-3.4-1.7-5.7-1.7-4 0-7 1.5-8.8 4.4-.4.6-.9 1-1.4 1-.4 0-.7-.1-1-.3l-4.2-2.8c-.4-.3-.7-.7-.7-1.3 0-.1 0-.4.1-.7 1.4-2.7 3.6-4.9 6.4-6.4 2.8-1.5 6-2.3 9.6-2.3 3.3 0 6.2.6 8.6 1.9 2.5 1.2 4.4 3 5.8 5.3 1.4 2.3 2 4.9 2 7.9v28c0 .4-.1.8-.4 1.1-.3.3-.7.4-1.1.4h-5.1c-.4 0-.8-.1-1.1-.4-.3-.3-.4-.7-.4-1.2v-3.8c-3.4 3.6-7.5 5.4-12.2 5.4-4.1 0-7.5-1.2-10.1-3.6zm16.4-5.9c1.7-1 3.1-2.3 4.2-3.9s1.6-3.3 1.6-5.1v-1.5l-5.6.8c-3 .3-5 .6-5.9.8-4.1.7-6.1 2.5-6.1 5.3 0 1.5.6 2.8 1.7 3.7 1.1.9 2.7 1.4 4.5 1.4 2 0 3.8-.5 5.6-1.5zM-1213.3 88.6c-2.5-.8-4.7-2-6.6-3.5-.2-.2-.4-.5-.5-.8-.1-.3-.1-.6 0-.9.3-.8 1.2-2.4 2.5-4.7.4-.6.9-.9 1.5-.9.3 0 .7.1 1 .3 1.8 1.2 3.5 2.1 5 2.7 1.6.6 3.2.9 5 .9 2.1 0 3.7-.4 4.8-1.2 1.1-.8 1.6-1.8 1.6-3.2 0-1.1-.5-2-1.4-2.7-.9-.6-2.7-1.5-5.4-2.5l-2.7-1c-2.2-.8-4-1.8-5.6-2.7-1.5-1-2.8-2.3-3.9-4-1.1-1.7-1.6-3.8-1.6-6.3 0-3.9 1.3-7 3.9-9.4 2.6-2.3 6.1-3.5 10.4-3.5 2.5 0 5 .4 7.5 1.2 2.4.8 4.6 2 6.4 3.4.2.2.4.5.5.8.1.3.1.6 0 .9-.4 1-1.2 2.6-2.2 4.7-.3.5-.8.8-1.4.8-.3 0-.7-.1-1-.3-3.4-2.2-6.6-3.4-9.5-3.4-1.7 0-3 .4-4 1.1-1 .7-1.5 1.7-1.5 3s.5 2.4 1.6 3.2c1.1.9 3.1 1.9 6 3 2.8 1.1 5 2 6.6 2.8 1.6.8 3 2 4.3 3.7 1.3 1.7 2 3.8 2 6.4 0 2.6-.7 4.9-2 6.9s-3.2 3.5-5.5 4.6c-2.4 1.1-5.1 1.6-8.1 1.6-2.7.3-5.2-.1-7.7-1zM-1171.4 102.7c-.3-.4-.3-.9-.1-1.5l3.9-11-14.6-42.5c-.1-.3-.1-.5-.1-.7 0-.5.2-.9.5-1.2.3-.3.8-.5 1.3-.5h5.2c.5 0 1 .1 1.4.4s.7.7.9 1.2l10.1 30.6 9.9-30.5c.1-.5.4-.9.9-1.2.4-.3.9-.4 1.4-.4h4.8c.5 0 1 .2 1.3.5.3.3.5.7.5 1.2 0 .1-.1.4-.1.7l-18.7 54c-.2.5-.5.9-.9 1.2-.4.3-.9.4-1.4.4h-4.9c-.6-.1-1-.3-1.3-.7zM-1133.4 89.4c-.3-.3-.4-.7-.4-1.1V46.9c0-.4.1-.8.4-1.1s.7-.4 1.1-.4h5.8c.4 0 .8.1 1.1.4s.4.7.4 1.1v4.4c1.4-1.9 3-3.4 5-4.4 1.9-1.1 4-1.6 6.3-1.6 2.8 0 5.4.7 7.6 2 2.3 1.3 4 3.2 5.3 5.6 1.3 2.4 1.9 5.1 1.9 8v27.4c0 .4-.1.8-.4 1.1-.3.3-.7.4-1.1.4h-5.8c-.4 0-.8-.1-1.1-.4-.3-.3-.4-.7-.4-1.1V62c0-2.6-.7-4.7-2-6.1-1.3-1.4-3.2-2.1-5.7-2.1-2.9 0-5.3 1-7 2.9-1.7 1.9-2.6 4.6-2.6 7.9v23.7c0 .4-.1.8-.4 1.1-.3.3-.7.4-1.1.4h-5.8c-.5.1-.8-.1-1.1-.4zM-1078.2 87.5c-2.7-1.6-4.9-3.7-6.4-6.5-1.6-2.7-2.4-5.7-2.4-8.9v-9c0-3.2.8-6.2 2.4-8.9 1.6-2.7 3.7-4.9 6.4-6.5 2.7-1.6 5.7-2.4 8.9-2.4 2.5 0 4.9.5 7.2 1.5s4.2 2.4 5.9 4.3c.3.3.5.7.5 1.2s-.2 1-.7 1.5l-3.2 3.2c-.3.3-.7.5-1.2.5-.4 0-.9-.2-1.3-.7-1.9-1.9-4.3-2.9-7.2-2.9-2.4 0-4.5.9-6.2 2.6-1.7 1.7-2.6 3.8-2.6 6.2v9.8c0 2.4.9 4.5 2.6 6.2 1.7 1.7 3.8 2.6 6.2 2.6 2.9 0 5.3-1 7.2-2.9.4-.4.8-.7 1.3-.7.4 0 .8.2 1.2.5l3.2 3.2c.4.4.7.9.7 1.5 0 .4-.2.8-.5 1.2-1.6 1.8-3.6 3.3-5.9 4.3-2.3 1-4.7 1.5-7.2 1.5-3.3 0-6.2-.8-8.9-2.4z"/><g><path class="st0" d="M-1263.8 121.1h1.9v15.1h9.4v1.7h-11.3v-16.8zM-1193.2 121.1h-1.8l-7.6 16.9h1.9l6.6-14.7 6.5 14.7h2l-7.6-16.9zM-1134.4 121.1h7.1c1.9 0 3.4.6 4.4 1.5.7.7 1.1 1.6 1.1 2.7 0 2.2-1.3 3.3-2.7 3.9 2 .6 3.6 1.8 3.6 4.1 0 2.9-2.4 4.6-6.1 4.6h-7.4v-16.8zm10.7 4.5c0-1.7-1.3-2.7-3.7-2.7h-5.1v5.8h5c2.2 0 3.8-1.1 3.8-3.1zm-3.5 4.7h-5.3v5.9h5.6c2.5 0 4.1-1.1 4.1-3 0-1.8-1.5-2.9-4.4-2.9zM-1070.3 135.4l1.2-1.4c1.7 1.5 3.4 2.3 5.7 2.3 2.2 0 3.7-1.2 3.7-2.8 0-1.5-.8-2.4-4.4-3.1-3.9-.8-5.6-2-5.6-4.7 0-2.6 2.3-4.5 5.5-4.5 2.4 0 4.2.7 5.9 2l-1.1 1.4c-1.6-1.2-3.1-1.8-4.8-1.8-2.2 0-3.6 1.2-3.6 2.6 0 1.5.9 2.4 4.5 3.2 3.7.8 5.5 2.1 5.5 4.6 0 2.8-2.4 4.6-5.7 4.6-2.7.2-4.8-.7-6.8-2.4z"/></g><g><path class="st0" d="M91.7 100.9c0 1.5-.8 2.9-2.1 3.6-.6.4-1.3.5-2 .5H4.1c-1.3 0-2.4-.6-3.2-1.5l-.3-.3c-.1-.1-.2-.3-.2-.4-.3-.6-.5-1.2-.5-1.9 0-1 .4-1.9 1-2.8.2-.3 29.2-43.9 29.2-44L23 43.5l-.6-.9c-.5-1-.8-2.1-.8-3.2 0-.8.1-1.6.4-2.3.3-.9 3.4-5.5 3.9-6.2l15.5 23.3-27.5 41.4h63.8l-7.3-10.9h11.3c.1.2 8.5 12.8 8.9 13.3.3.4.6.9.8 1.3.2.5.3 1.1.3 1.6z"/><path class="st0" d="M66 61H54.7L32.9 28.3c-.8-1.1-1.2-2.4-1.2-3.9 0-1 .3-2.1.7-3 .3-.6 3.5-5.3 3.5-5.4L66 61z"/><path class="st0" d="M136.2 105h-8.1c-1.9 0-3.5-.8-4.6-2.2-.1-.1-.1-.2-.1-.2s-.1-.1-.1-.2l-16.6-24.9H62.2c-1.1 0-2.2 0-3.3-.4-1.9-.6-3.3-2-4.4-3.6-.3-.4-3.3-5.1-3.6-5.4h49.6L66.3 16.9 55.8 32.7l-5.6-8.5L66.3 0l69.9 105z"/></g></g><g><text transform="translate(-1203.118 617.304)" class="st1" font-family="Gotham-Medium" font-size="29.285">R38 G103 B198</text><path class="st3" d="M-1509.9 584.7h40.6v40.6h-40.6z"/><text transform="translate(-1402.985 617.304)" class="st1" font-family="Gotham-Medium" font-size="29.285">#2667C6</text><g><text transform="translate(-1203.118 713.164)" class="st1" font-family="Gotham-Medium" font-size="29.285">R107 G107 B107</text><path class="st1" d="M-1509.9 680.6h40.6v40.6h-40.6z"/><text transform="translate(-1402.985 713.164)" class="st1" font-family="Gotham-Medium" font-size="29.285">#6B6B6B</text></g><g><path class="st2" d="M-1509.9 488.9h40.6v40.6h-40.6z"/><text transform="translate(-1402.985 521.445)" class="st1" font-family="Gotham-Medium" font-size="29.285">#237EF3</text><text transform="translate(-1203.118 521.445)" class="st1" font-family="Gotham-Medium" font-size="29.285">R35 G126 B243</text></g></g><g><path class="st4" d="M-1516.8 1030.5h40.6v40.6h-40.6z"/><text transform="translate(-1409.9 1063.043)" class="st0" font-family="Gotham-Medium" font-size="29.285">#D9E3E8</text><text transform="translate(-1210.033 1063.043)" class="st0" font-family="Gotham-Medium" font-size="29.29">R217 G227 B232</text><g><path class="st0" d="M-1516.8 1139h40.6v40.6h-40.6z"/><text transform="translate(-1409.9 1171.565)" class="st0" font-family="Gotham-Medium" font-size="29.285">#FFFFFF</text><text transform="translate(-1210.033 1171.565)" class="st0" font-family="Gotham-Medium" font-size="29.29">R255 G255 B255</text></g></g></g></svg>