<svg xmlns="http://www.w3.org/2000/svg" viewBox="0 0 210 92.8"><style>.st0{fill:#fff}.st1{fill:#6b6b6b}.st2{fill:#237ef3}.st3{fill:#2667c6}.st4{fill:#d9e3e8}</style><g id="Layer_2"><path class="st0" d="M-1346-961.3h1000v500h-1000z"/><path d="M-1346-461.3h1000v500h-1000z"/><path class="st0" d="M-2366 58.7h1000v500h-1000zM-1346 58.7h1000v500h-1000z"/><path class="st1" d="M-2366 558.7h1000v500h-1000zM-1346 558.7h1000v500h-1000z"/></g><g id="Layer_1"><path class="st2" d="M-1887.6-714.5c-2.6-2.4-3.9-5.4-3.9-9.2 0-3.4 1.2-6.3 3.6-8.5 2.4-2.3 5.7-3.7 10.1-4.4 1.1-.1 2.1-.2 3.1-.4 3.5-.4 5.6-.7 6.3-.9 1.8-.3 2.8-1.3 2.8-3.1s-.8-3.3-2.3-4.4c-1.5-1.1-3.4-1.7-5.7-1.7-4 0-7 1.5-8.8 4.4-.4.6-.9 1-1.4 1-.4 0-.7-.1-1-.3l-4.2-2.8c-.4-.3-.7-.7-.7-1.3 0-.1 0-.4.1-.7 1.4-2.7 3.6-4.9 6.4-6.4 2.8-1.5 6-2.3 9.6-2.3 3.3 0 6.2.6 8.6 1.9 2.5 1.2 4.4 3 5.8 5.3 1.4 2.3 2 4.9 2 7.9v28c0 .4-.1.8-.4 1.1-.3.3-.7.4-1.1.4h-5.1c-.4 0-.8-.1-1.1-.4-.3-.3-.4-.7-.4-1.2v-3.8c-3.4 3.6-7.5 5.4-12.2 5.4-4.1-.1-7.5-1.3-10.1-3.6zm16.4-6c1.7-1 3.1-2.3 4.2-3.9s1.6-3.3 1.6-5.1v-1.5l-5.6.8c-3 .3-5 .6-5.9.8-4.1.7-6.1 2.5-6.1 5.3 0 1.5.6 2.8 1.7 3.7 1.1.9 2.7 1.4 4.5 1.4 2 0 3.8-.5 5.6-1.5zM-1839-712.3c-2.5-.8-4.7-2-6.6-3.5-.2-.2-.4-.5-.5-.8-.1-.3-.1-.6 0-.9.3-.8 1.2-2.4 2.5-4.7.4-.6.9-.9 1.5-.9.3 0 .7.1 1 .3 1.8 1.2 3.5 2.1 5 2.7 1.6.6 3.2.9 5 .9 2.1 0 3.7-.4 4.8-1.2 1.1-.8 1.6-1.8 1.6-3.2 0-1.1-.5-2-1.4-2.7-.9-.6-2.7-1.5-5.4-2.5l-2.7-1c-2.2-.8-4-1.8-5.6-2.7s-2.8-2.3-3.9-4c-1.1-1.7-1.6-3.8-1.6-6.3 0-3.9 1.3-7 3.9-9.4 2.6-2.3 6.1-3.5 10.4-3.5 2.5 0 5 .4 7.5 1.2 2.4.8 4.6 2 6.4 3.4.2.2.4.5.5.8.1.3.1.6 0 .9-.4 1-1.2 2.6-2.2 4.7-.3.5-.8.8-1.4.8-.3 0-.7-.1-1-.3-3.4-2.2-6.6-3.4-9.5-3.4-1.7 0-3 .4-4 1.1-1 .7-1.5 1.7-1.5 3s.5 2.4 1.6 3.2c1.1.9 3.1 1.9 6 3 2.8 1.1 5 2 6.6 2.8 1.6.8 3 2 4.3 3.7 1.3 1.7 2 3.8 2 6.4 0 2.6-.7 4.9-2 6.9s-3.2 3.5-5.5 4.6c-2.4 1.1-5.1 1.6-8.1 1.6-2.6.3-5.2-.1-7.7-1zM-1797.1-698.2c-.3-.4-.3-.9-.1-1.5l3.9-11-14.6-42.5c-.1-.3-.1-.5-.1-.7 0-.5.2-.9.5-1.2.3-.3.8-.5 1.3-.5h5.2c.5 0 1 .1 1.4.4.4.3.7.7.9 1.2l10.1 30.6 10.1-30.6c.1-.5.4-.9.9-1.2.4-.3.9-.4 1.4-.4h4.8c.5 0 1 .2 1.3.5.3.3.5.7.5 1.2 0 .1-.1.4-.1.7l-18.7 54c-.2.5-.5.9-.9 1.2-.4.3-.9.4-1.4.4h-4.9c-.8 0-1.2-.2-1.5-.6zM-1759.1-711.5c-.3-.3-.4-.7-.4-1.1V-754c0-.4.1-.8.4-1.1s.7-.4 1.1-.4h5.8c.4 0 .8.1 1.1.4s.4.7.4 1.1v4.4c1.4-1.9 3-3.4 5-4.4 1.9-1.1 4-1.6 6.3-1.6 2.8 0 5.4.7 7.6 2 2.3 1.3 4 3.2 5.3 5.6 1.3 2.4 1.9 5.1 1.9 8v27.4c0 .4-.1.8-.4 1.1-.3.3-.7.4-1.1.4h-5.8c-.4 0-.8-.1-1.1-.4-.3-.3-.4-.7-.4-1.1v-26.3c0-2.6-.7-4.7-2-6.1-1.3-1.4-3.2-2.1-5.7-2.1-2.9 0-5.3 1-7 2.9-1.7 1.9-2.6 4.6-2.6 7.9v23.7c0 .4-.1.8-.4 1.1-.3.3-.7.4-1.1.4h-5.8c-.4.1-.8-.1-1.1-.4zM-1703.9-713.4c-2.7-1.6-4.9-3.7-6.4-6.5-1.6-2.7-2.4-5.7-2.4-8.9v-9c0-3.2.8-6.2 2.4-8.9 1.6-2.7 3.7-4.9 6.4-6.5 2.7-1.6 5.7-2.4 8.9-2.4 2.5 0 4.9.5 7.2 1.5s4.2 2.4 5.9 4.3c.3.3.5.7.5 1.2s-.2 1-.7 1.5l-3.2 3.2c-.3.3-.7.5-1.2.5-.4 0-.9-.2-1.3-.7-1.9-1.9-4.3-2.9-7.2-2.9-2.4 0-4.5.9-6.2 2.6-1.7 1.7-2.6 3.8-2.6 6.2v9.8c0 2.4.9 4.5 2.6 6.2 1.7 1.7 3.8 2.6 6.2 2.6 2.9 0 5.3-1 7.2-2.9.4-.4.8-.7 1.3-.7.4 0 .8.2 1.2.5l3.2 3.2c.4.4.7.9.7 1.5 0 .4-.2.8-.5 1.2-1.6 1.8-3.6 3.3-5.9 4.3s-4.7 1.5-7.2 1.5c-3.3 0-6.2-.8-8.9-2.4z"/><path class="st1" d="M-1889.5-679.7h1.9v15.1h9.4v1.7h-11.3v-16.8zM-1818.9-679.7h-1.8l-7.6 16.9h1.9l6.6-14.7 6.5 14.7h2l-7.6-16.9zM-1760.1-679.7h7.1c1.9 0 3.4.6 4.4 1.5.7.7 1.1 1.6 1.1 2.7 0 2.2-1.3 3.3-2.7 3.9 2 .6 3.6 1.8 3.6 4.1 0 2.9-2.4 4.6-6.1 4.6h-7.4v-16.8zm10.7 4.4c0-1.7-1.3-2.7-3.7-2.7h-5.1v5.8h5c2.2 0 3.8-1.1 3.8-3.1zm-3.5 4.8h-5.3v5.9h5.6c2.5 0 4.1-1.1 4.1-3s-1.5-2.9-4.4-2.9zM-1696-665.5l1.2-1.4c1.7 1.5 3.4 2.3 5.7 2.3 2.2 0 3.7-1.2 3.7-2.8 0-1.5-.8-2.4-4.4-3.1-3.9-.8-5.6-2-5.6-4.7 0-2.6 2.3-4.5 5.5-4.5 2.4 0 4.2.7 5.9 2l-1.1 1.4c-1.6-1.2-3.1-1.8-4.8-1.8-2.2 0-3.6 1.2-3.6 2.6 0 1.5.9 2.4 4.5 3.2 3.7.8 5.5 2.1 5.5 4.6 0 2.8-2.4 4.6-5.7 4.6-2.6.2-4.8-.6-6.8-2.4z"/><g><path class="st3" d="M-1958.9-667c0 1.5-.8 2.9-2.1 3.6-.6.4-1.3.5-2 .5h-83.5c-1.3 0-2.4-.6-3.2-1.5l-.3-.3c-.1-.1-.2-.3-.2-.4-.3-.6-.5-1.2-.5-1.9 0-1 .4-1.9 1-2.8.2-.3 29.2-43.9 29.2-44l-7.1-10.6-.6-.9c-.5-1-.8-2.1-.8-3.2 0-.8.1-1.6.4-2.3.3-.9 3.4-5.5 3.9-6.2l15.5 23.3-27.6 41.4h63.8l-7.3-10.9h11.3c.1.2 8.5 12.8 8.9 13.3.3.4.6.9.8 1.3.3.5.4 1.1.4 1.6z"/><path class="st3" d="M-1984.6-706.9h-11.3l-21.8-32.7c-.8-1.1-1.2-2.4-1.2-3.9 0-1 .3-2.1.7-3 .3-.6 3.5-5.3 3.5-5.4l30.1 45z"/><path class="st2" d="M-1914.4-662.9h-8.1c-1.9 0-3.5-.8-4.6-2.2-.1-.1-.1-.2-.1-.2s-.1-.1-.1-.2l-16.6-24.9h-44.5c-1.1 0-2.2 0-3.3-.4-1.9-.6-3.3-2-4.4-3.6-.3-.4-3.3-5.1-3.6-5.4h49.6l-34.1-51.2-10.5 15.8-5.6-8.5 16.2-24.3 69.7 105.1z"/></g><g><path class="st2" d="M-1887.6-463.7c-2.6-2.4-3.9-5.4-3.9-9.2 0-3.4 1.2-6.3 3.6-8.5 2.4-2.3 5.7-3.7 10.1-4.4 1.1-.1 2.1-.2 3.1-.4 3.5-.4 5.6-.7 6.3-.9 1.8-.3 2.8-1.3 2.8-3.1s-.8-3.3-2.3-4.4c-1.5-1.1-3.4-1.7-5.7-1.7-4 0-7 1.5-8.8 4.4-.4.6-.9 1-1.4 1-.4 0-.7-.1-1-.3l-4.2-2.8c-.4-.3-.7-.7-.7-1.3 0-.1 0-.4.1-.7 1.4-2.7 3.6-4.9 6.4-6.4 2.8-1.5 6-2.3 9.6-2.3 3.3 0 6.2.6 8.6 1.9 2.5 1.2 4.4 3 5.8 5.3 1.4 2.3 2 4.9 2 7.9v28c0 .4-.1.8-.4 1.1-.3.3-.7.4-1.1.4h-5.1c-.4 0-.8-.1-1.1-.4-.3-.3-.4-.7-.4-1.2v-3.8c-3.4 3.6-7.5 5.4-12.2 5.4-4.1-.1-7.5-1.3-10.1-3.6zm16.4-5.9c1.7-1 3.1-2.3 4.2-3.9s1.6-3.3 1.6-5.1v-1.5l-5.6.8c-3 .3-5 .6-5.9.8-4.1.7-6.1 2.5-6.1 5.3 0 1.5.6 2.8 1.7 3.7 1.1.9 2.7 1.4 4.5 1.4 2-.1 3.8-.5 5.6-1.5zM-1839-461.4c-2.5-.8-4.7-2-6.6-3.5-.2-.2-.4-.5-.5-.8-.1-.3-.1-.6 0-.9.3-.8 1.2-2.4 2.5-4.7.4-.6.9-.9 1.5-.9.3 0 .7.1 1 .3 1.8 1.2 3.5 2.1 5 2.7 1.6.6 3.2.9 5 .9 2.1 0 3.7-.4 4.8-1.2 1.1-.8 1.6-1.8 1.6-3.2 0-1.1-.5-2-1.4-2.7-.9-.6-2.7-1.5-5.4-2.5l-2.7-1c-2.2-.8-4-1.8-5.6-2.7s-2.8-2.3-3.9-4c-1.1-1.7-1.6-3.8-1.6-6.3 0-3.9 1.3-7 3.9-9.4 2.6-2.3 6.1-3.5 10.4-3.5 2.5 0 5 .4 7.5 1.2 2.4.8 4.6 2 6.4 3.4.2.2.4.5.5.8.1.3.1.6 0 .9-.4 1-1.2 2.6-2.2 4.7-.3.5-.8.8-1.4.8-.3 0-.7-.1-1-.3-3.4-2.2-6.6-3.4-9.5-3.4-1.7 0-3 .4-4 1.1-1 .7-1.5 1.7-1.5 3s.5 2.4 1.6 3.2c1.1.9 3.1 1.9 6 3 2.8 1.1 5 2 6.6 2.8 1.6.8 3 2 4.3 3.7 1.3 1.7 2 3.8 2 6.4 0 2.6-.7 4.9-2 6.9s-3.2 3.5-5.5 4.6c-2.4 1.1-5.1 1.6-8.1 1.6-2.6.2-5.2-.2-7.7-1zM-1797.1-447.4c-.3-.4-.3-.9-.1-1.5l3.9-11-14.6-42.5c-.1-.3-.1-.5-.1-.7 0-.5.2-.9.5-1.2.3-.3.8-.5 1.3-.5h5.2c.5 0 1 .1 1.4.4.4.3.7.7.9 1.2l10.1 30.6 10.1-30.6c.1-.5.4-.9.9-1.2.4-.3.9-.4 1.4-.4h4.8c.5 0 1 .2 1.3.5.3.3.5.7.5 1.2 0 .1-.1.4-.1.7l-18.7 54c-.2.5-.5.9-.9 1.2-.4.3-.9.4-1.4.4h-4.9c-.8.1-1.2-.2-1.5-.6zM-1759.1-460.6c-.3-.3-.4-.7-.4-1.1v-41.4c0-.4.1-.8.4-1.1.3-.3.7-.4 1.1-.4h5.8c.4 0 .8.1 1.1.4.3.3.4.7.4 1.1v4.4c1.4-1.9 3-3.4 5-4.4 1.9-1.1 4-1.6 6.3-1.6 2.8 0 5.4.7 7.6 2s4 3.2 5.3 5.6c1.3 2.4 1.9 5.1 1.9 8v27.4c0 .4-.1.8-.4 1.1-.3.3-.7.4-1.1.4h-5.8c-.4 0-.8-.1-1.1-.4-.3-.3-.4-.7-.4-1.1V-488c0-2.6-.7-4.7-2-6.1-1.3-1.4-3.2-2.1-5.7-2.1-2.9 0-5.3 1-7 2.9-1.7 1.9-2.6 4.6-2.6 7.9v23.7c0 .4-.1.8-.4 1.1-.3.3-.7.4-1.1.4h-5.8c-.4 0-.8-.2-1.1-.4zM-1703.9-462.6c-2.7-1.6-4.9-3.7-6.4-6.5-1.6-2.7-2.4-5.7-2.4-8.9v-9c0-3.2.8-6.2 2.4-8.9 1.6-2.7 3.7-4.9 6.4-6.5 2.7-1.6 5.7-2.4 8.9-2.4 2.5 0 4.9.5 7.2 1.5s4.2 2.4 5.9 4.3c.3.3.5.7.5 1.2s-.2 1-.7 1.5l-3.2 3.2c-.3.3-.7.5-1.2.5-.4 0-.9-.2-1.3-.7-1.9-1.9-4.3-2.9-7.2-2.9-2.4 0-4.5.9-6.2 2.6-1.7 1.7-2.6 3.8-2.6 6.2v9.8c0 2.4.9 4.5 2.6 6.2 1.7 1.7 3.8 2.6 6.2 2.6 2.9 0 5.3-1 7.2-2.9.4-.4.8-.7 1.3-.7.4 0 .8.2 1.2.5l3.2 3.2c.4.4.7.9.7 1.5 0 .4-.2.8-.5 1.2-1.6 1.8-3.6 3.3-5.9 4.3s-4.7 1.5-7.2 1.5c-3.3 0-6.2-.8-8.9-2.4z"/><g><path class="st2" d="M-1889.5-428.9h1.9v15.1h9.4v1.7h-11.3v-16.8zM-1818.9-428.9h-1.8l-7.6 16.9h1.9l6.6-14.7 6.5 14.7h2l-7.6-16.9zM-1760.1-428.9h7.1c1.9 0 3.4.6 4.4 1.5.7.7 1.1 1.6 1.1 2.7 0 2.2-1.3 3.3-2.7 3.9 2 .6 3.6 1.8 3.6 4.1 0 2.9-2.4 4.6-6.1 4.6h-7.4v-16.8zm10.7 4.4c0-1.7-1.3-2.7-3.7-2.7h-5.1v5.8h5c2.2 0 3.8-1 3.8-3.1zm-3.5 4.8h-5.3v5.9h5.6c2.5 0 4.1-1.1 4.1-3s-1.5-2.9-4.4-2.9zM-1696-414.7l1.2-1.4c1.7 1.5 3.4 2.3 5.7 2.3 2.2 0 3.7-1.2 3.7-2.8 0-1.5-.8-2.4-4.4-3.1-3.9-.8-5.6-2-5.6-4.7 0-2.6 2.3-4.5 5.5-4.5 2.4 0 4.2.7 5.9 2l-1.1 1.4c-1.6-1.2-3.1-1.8-4.8-1.8-2.2 0-3.6 1.2-3.6 2.6 0 1.5.9 2.4 4.5 3.2 3.7.8 5.5 2.1 5.5 4.6 0 2.8-2.4 4.6-5.7 4.6-2.6.2-4.8-.6-6.8-2.4z"/></g><g><path class="st2" d="M-1958.9-416.1c0 1.5-.8 2.9-2.1 3.6-.6.4-1.3.5-2 .5h-83.5c-1.3 0-2.4-.6-3.2-1.5l-.3-.3c-.1-.1-.2-.3-.2-.4-.3-.6-.5-1.2-.5-1.9 0-1 .4-1.9 1-2.8.2-.3 29.2-43.9 29.2-44l-7.1-10.6-.6-.9c-.5-1-.8-2.1-.8-3.2 0-.8.1-1.6.4-2.3.3-.9 3.4-5.5 3.9-6.2l15.5 23.3-27.6 41.4h63.8l-7.3-10.9h11.3c.1.2 8.5 12.8 8.9 13.3.3.4.6.9.8 1.3.3.4.4 1 .4 1.6z"/><path class="st2" d="M-1984.6-456.1h-11.3l-21.8-32.7c-.8-1.1-1.2-2.4-1.2-3.9 0-1 .3-2.1.7-3 .3-.6 3.5-5.3 3.5-5.4l30.1 45z"/><path class="st2" d="M-1914.4-412.1h-8.1c-1.9 0-3.5-.8-4.6-2.2-.1-.1-.1-.2-.1-.2s-.1-.1-.1-.2l-16.6-24.9h-44.5c-1.1 0-2.2 0-3.3-.4-1.9-.6-3.3-2-4.4-3.6-.3-.4-3.3-5.1-3.6-5.4h49.6l-34.1-51.2-10.5 15.8-5.6-8.5 16.2-24.3 69.7 105.1z"/></g></g><g><path class="st3" d="M-1887.6-206.4c-2.6-2.4-3.9-5.4-3.9-9.2 0-3.4 1.2-6.3 3.6-8.5 2.4-2.3 5.7-3.7 10.1-4.4 1.1-.1 2.1-.2 3.1-.4 3.5-.4 5.6-.7 6.3-.9 1.8-.3 2.8-1.3 2.8-3.1s-.8-3.3-2.3-4.4c-1.5-1.1-3.4-1.7-5.7-1.7-4 0-7 1.5-8.8 4.4-.4.6-.9 1-1.4 1-.4 0-.7-.1-1-.3l-4.2-2.8c-.4-.3-.7-.7-.7-1.3 0-.1 0-.4.1-.7 1.4-2.7 3.6-4.9 6.4-6.4 2.8-1.5 6-2.3 9.6-2.3 3.3 0 6.2.6 8.6 1.9 2.5 1.2 4.4 3 5.8 5.3 1.4 2.3 2 4.9 2 7.9v28c0 .4-.1.8-.4 1.1-.3.3-.7.4-1.1.4h-5.1c-.4 0-.8-.1-1.1-.4-.3-.3-.4-.7-.4-1.2v-3.8c-3.4 3.6-7.5 5.4-12.2 5.4-4.1-.1-7.5-1.3-10.1-3.6zm16.4-6c1.7-1 3.1-2.3 4.2-3.9s1.6-3.3 1.6-5.1v-1.5l-5.6.8c-3 .3-5 .6-5.9.8-4.1.7-6.1 2.5-6.1 5.3 0 1.5.6 2.8 1.7 3.7 1.1.9 2.7 1.4 4.5 1.4 2 0 3.8-.5 5.6-1.5zM-1839-204.2c-2.5-.8-4.7-2-6.6-3.5-.2-.2-.4-.5-.5-.8-.1-.3-.1-.6 0-.9.3-.8 1.2-2.4 2.5-4.7.4-.6.9-.9 1.5-.9.3 0 .7.1 1 .3 1.8 1.2 3.5 2.1 5 2.7 1.6.6 3.2.9 5 .9 2.1 0 3.7-.4 4.8-1.2 1.1-.8 1.6-1.8 1.6-3.2 0-1.1-.5-2-1.4-2.7-.9-.6-2.7-1.5-5.4-2.5l-2.7-1c-2.2-.8-4-1.8-5.6-2.7-1.5-1-2.8-2.3-3.9-4-1.1-1.7-1.6-3.8-1.6-6.3 0-3.9 1.3-7 3.9-9.4 2.6-2.3 6.1-3.5 10.4-3.5 2.5 0 5 .4 7.5 1.2 2.4.8 4.6 2 6.4 3.4.2.2.4.5.5.8.1.3.1.6 0 .9-.4 1-1.2 2.6-2.2 4.7-.3.5-.8.8-1.4.8-.3 0-.7-.1-1-.3-3.4-2.2-6.6-3.4-9.5-3.4-1.7 0-3 .4-4 1.1-1 .7-1.5 1.7-1.5 3s.5 2.4 1.6 3.2c1.1.9 3.1 1.9 6 3 2.8 1.1 5 2 6.6 2.8 1.6.8 3 2 4.3 3.7 1.3 1.7 2 3.8 2 6.4 0 2.6-.7 4.9-2 6.9s-3.2 3.5-5.5 4.6c-2.4 1.1-5.1 1.6-8.1 1.6-2.6.3-5.2-.1-7.7-1zM-1797.1-190.1c-.3-.4-.3-.9-.1-1.5l3.9-11-14.6-42.5c-.1-.3-.1-.5-.1-.7 0-.5.2-.9.5-1.2.3-.3.8-.5 1.3-.5h5.2c.5 0 1 .1 1.4.4.4.3.7.7.9 1.2l10.1 30.6 10.1-30.6c.1-.5.4-.9.9-1.2.4-.3.9-.4 1.4-.4h4.8c.5 0 1 .2 1.3.5.3.3.5.7.5 1.2 0 .1-.1.4-.1.7l-18.7 54c-.2.5-.5.9-.9 1.2-.4.3-.9.4-1.4.4h-4.9c-.8 0-1.2-.2-1.5-.6zM-1759.1-203.4c-.3-.3-.4-.7-.4-1.1v-41.4c0-.4.1-.8.4-1.1s.7-.4 1.1-.4h5.8c.4 0 .8.1 1.1.4s.4.7.4 1.1v4.4c1.4-1.9 3-3.4 5-4.4 1.9-1.1 4-1.6 6.3-1.6 2.8 0 5.4.7 7.6 2 2.3 1.3 4 3.2 5.3 5.6 1.3 2.4 1.9 5.1 1.9 8v27.4c0 .4-.1.8-.4 1.1-.3.3-.7.4-1.1.4h-5.8c-.4 0-.8-.1-1.1-.4-.3-.3-.4-.7-.4-1.1v-26.3c0-2.6-.7-4.7-2-6.1-1.3-1.4-3.2-2.1-5.7-2.1-2.9 0-5.3 1-7 2.9-1.7 1.9-2.6 4.6-2.6 7.9v23.7c0 .4-.1.8-.4 1.1-.3.3-.7.4-1.1.4h-5.8c-.4.1-.8-.1-1.1-.4zM-1703.9-205.3c-2.7-1.6-4.9-3.7-6.4-6.5-1.6-2.7-2.4-5.7-2.4-8.9v-9c0-3.2.8-6.2 2.4-8.9 1.6-2.7 3.7-4.9 6.4-6.5 2.7-1.6 5.7-2.4 8.9-2.4 2.5 0 4.9.5 7.2 1.5s4.2 2.4 5.9 4.3c.3.3.5.7.5 1.2s-.2 1-.7 1.5l-3.2 3.2c-.3.3-.7.5-1.2.5-.4 0-.9-.2-1.3-.7-1.9-1.9-4.3-2.9-7.2-2.9-2.4 0-4.5.9-6.2 2.6-1.7 1.7-2.6 3.8-2.6 6.2v9.8c0 2.4.9 4.5 2.6 6.2 1.7 1.7 3.8 2.6 6.2 2.6 2.9 0 5.3-1 7.2-2.9.4-.4.8-.7 1.3-.7.4 0 .8.2 1.2.5l3.2 3.2c.4.4.7.9.7 1.5 0 .4-.2.8-.5 1.2-1.6 1.8-3.6 3.3-5.9 4.3s-4.7 1.5-7.2 1.5c-3.3 0-6.2-.8-8.9-2.4z"/><g><path class="st3" d="M-1889.5-171.6h1.9v15.1h9.4v1.7h-11.3v-16.8zM-1818.9-171.6h-1.8l-7.6 16.9h1.9l6.6-14.7 6.5 14.7h2l-7.6-16.9zM-1760.1-171.6h7.1c1.9 0 3.4.6 4.4 1.5.7.7 1.1 1.6 1.1 2.7 0 2.2-1.3 3.3-2.7 3.9 2 .6 3.6 1.8 3.6 4.1 0 2.9-2.4 4.6-6.1 4.6h-7.4v-16.8zm10.7 4.4c0-1.7-1.3-2.7-3.7-2.7h-5.1v5.8h5c2.2 0 3.8-1.1 3.8-3.1zm-3.5 4.8h-5.3v5.9h5.6c2.5 0 4.1-1.1 4.1-3s-1.5-2.9-4.4-2.9zM-1696-157.4l1.2-1.4c1.7 1.5 3.4 2.3 5.7 2.3 2.2 0 3.7-1.2 3.7-2.8 0-1.5-.8-2.4-4.4-3.1-3.9-.8-5.6-2-5.6-4.7 0-2.6 2.3-4.5 5.5-4.5 2.4 0 4.2.7 5.9 2l-1.1 1.4c-1.6-1.2-3.1-1.8-4.8-1.8-2.2 0-3.6 1.2-3.6 2.6 0 1.5.9 2.4 4.5 3.2 3.7.8 5.5 2.1 5.5 4.6 0 2.8-2.4 4.6-5.7 4.6-2.6.2-4.8-.6-6.8-2.4z"/></g><g><path class="st3" d="M-1958.9-158.9c0 1.5-.8 2.9-2.1 3.6-.6.4-1.3.5-2 .5h-83.5c-1.3 0-2.4-.6-3.2-1.5l-.3-.3c-.1-.1-.2-.3-.2-.4-.3-.6-.5-1.2-.5-1.9 0-1 .4-1.9 1-2.8.2-.3 29.2-43.9 29.2-44l-7.1-10.6-.6-.9c-.5-1-.8-2.1-.8-3.2 0-.8.1-1.6.4-2.3.3-.9 3.4-5.5 3.9-6.2l15.5 23.3-27.6 41.4h63.8l-7.3-10.9h11.3c.1.2 8.5 12.8 8.9 13.3.3.4.6.9.8 1.3.3.5.4 1.1.4 1.6z"/><path class="st3" d="M-1984.6-198.8h-11.3l-21.8-32.7c-.8-1.1-1.2-2.4-1.2-3.9 0-1 .3-2.1.7-3 .3-.6 3.5-5.3 3.5-5.4l30.1 45z"/><path class="st3" d="M-1914.4-154.8h-8.1c-1.9 0-3.5-.8-4.6-2.2-.1-.1-.1-.2-.1-.2s-.1-.1-.1-.2l-16.6-24.9h-44.5c-1.1 0-2.2 0-3.3-.4-1.9-.6-3.3-2-4.4-3.6-.3-.4-3.3-5.1-3.6-5.4h49.6l-34.1-51.2-10.5 15.8-5.6-8.5 16.2-24.3 69.7 105.1z"/></g></g><g><path d="M-867.6-710.5c-2.6-2.4-3.9-5.4-3.9-9.2 0-3.4 1.2-6.3 3.6-8.5 2.4-2.3 5.7-3.7 10.1-4.4 1.1-.1 2.1-.2 3.1-.4 3.5-.4 5.6-.7 6.3-.9 1.8-.3 2.8-1.3 2.8-3.1s-.8-3.3-2.3-4.4c-1.5-1.1-3.4-1.7-5.7-1.7-4 0-7 1.5-8.8 4.4-.4.6-.9 1-1.4 1-.4 0-.7-.1-1-.3l-4.2-2.8c-.4-.3-.7-.7-.7-1.3 0-.1 0-.4.1-.7 1.4-2.7 3.6-4.9 6.4-6.4 2.8-1.5 6-2.3 9.6-2.3 3.3 0 6.2.6 8.6 1.9 2.5 1.2 4.4 3 5.8 5.3 1.4 2.3 2 4.9 2 7.9v28c0 .4-.1.8-.4 1.1-.3.3-.7.4-1.1.4h-5.1c-.4 0-.8-.1-1.1-.4-.3-.3-.4-.7-.4-1.2v-3.8c-3.4 3.6-7.5 5.4-12.2 5.4-4.1 0-7.5-1.2-10.1-3.6zm16.4-5.9c1.7-1 3.1-2.3 4.2-3.9s1.6-3.3 1.6-5.1v-1.5l-5.6.8c-3 .3-5 .6-5.9.8-4.1.7-6.1 2.5-6.1 5.3 0 1.5.6 2.8 1.7 3.7 1.1.9 2.7 1.4 4.5 1.4 2 0 3.8-.5 5.6-1.5zM-819-708.2c-2.5-.8-4.7-2-6.6-3.5-.2-.2-.4-.5-.5-.8-.1-.3-.1-.6 0-.9.3-.8 1.2-2.4 2.5-4.7.4-.6.9-.9 1.5-.9.3 0 .7.1 1 .3 1.8 1.2 3.5 2.1 5 2.7 1.6.6 3.2.9 5 .9 2.1 0 3.7-.4 4.8-1.2 1.1-.8 1.6-1.8 1.6-3.2 0-1.1-.5-2-1.4-2.7-.9-.6-2.7-1.5-5.4-2.5l-2.7-1c-2.2-.8-4-1.8-5.6-2.7-1.5-1-2.8-2.3-3.9-4-1.1-1.7-1.6-3.8-1.6-6.3 0-3.9 1.3-7 3.9-9.4 2.6-2.3 6.1-3.5 10.4-3.5 2.5 0 5 .4 7.5 1.2 2.4.8 4.6 2 6.4 3.4.2.2.4.5.5.8.1.3.1.6 0 .9-.4 1-1.2 2.6-2.2 4.7-.3.5-.8.8-1.4.8-.3 0-.7-.1-1-.3-3.4-2.2-6.6-3.4-9.5-3.4-1.7 0-3 .4-4 1.1-1 .7-1.5 1.7-1.5 3s.5 2.4 1.6 3.2c1.1.9 3.1 1.9 6 3 2.8 1.1 5 2 6.6 2.8 1.6.8 3 2 4.3 3.7 1.3 1.7 2 3.8 2 6.4 0 2.6-.7 4.9-2 6.9s-3.2 3.5-5.5 4.6c-2.4 1.1-5.1 1.6-8.1 1.6-2.6.3-5.2-.2-7.7-1zM-777.1-694.1c-.3-.4-.3-.9-.1-1.5l3.9-11-14.6-42.5c-.1-.3-.1-.5-.1-.7 0-.5.2-.9.5-1.2.3-.3.8-.5 1.3-.5h5.2c.5 0 1 .1 1.4.4.4.3.7.7.9 1.2l10.1 30.6 10.1-30.6c.1-.5.4-.9.9-1.2.4-.3.9-.4 1.4-.4h4.8c.5 0 1 .2 1.3.5.3.3.5.7.5 1.2 0 .1-.1.4-.1.7l-18.7 54c-.2.5-.5.9-.9 1.2-.4.3-.9.4-1.4.4h-4.9c-.8 0-1.2-.2-1.5-.6zM-739.1-707.4c-.3-.3-.4-.7-.4-1.1v-41.4c0-.4.1-.8.4-1.1.3-.3.7-.4 1.1-.4h5.8c.4 0 .8.1 1.1.4.3.3.4.7.4 1.1v4.4c1.4-1.9 3-3.4 5-4.4 1.9-1.1 4-1.6 6.3-1.6 2.8 0 5.4.7 7.6 2 2.3 1.3 4 3.2 5.3 5.6s1.9 5.1 1.9 8v27.4c0 .4-.1.8-.4 1.1-.3.3-.7.4-1.1.4h-5.8c-.4 0-.8-.1-1.1-.4-.3-.3-.4-.7-.4-1.1v-26.3c0-2.6-.7-4.7-2-6.1-1.3-1.4-3.2-2.1-5.7-2.1-2.9 0-5.3 1-7 2.9-1.7 1.9-2.6 4.6-2.6 7.9v23.7c0 .4-.1.8-.4 1.1-.3.3-.7.4-1.1.4h-5.8c-.4 0-.8-.1-1.1-.4zM-683.9-709.3c-2.7-1.6-4.9-3.7-6.4-6.5-1.6-2.7-2.4-5.7-2.4-8.9v-9c0-3.2.8-6.2 2.4-8.9 1.6-2.7 3.7-4.9 6.4-6.5 2.7-1.6 5.7-2.4 8.9-2.4 2.5 0 4.9.5 7.2 1.5s4.2 2.4 5.9 4.3c.3.3.5.7.5 1.2s-.2 1-.7 1.5l-3.2 3.2c-.3.3-.7.5-1.2.5-.4 0-.9-.2-1.3-.7-1.9-1.9-4.3-2.9-7.2-2.9-2.4 0-4.5.9-6.2 2.6-1.7 1.7-2.6 3.8-2.6 6.2v9.8c0 2.4.9 4.5 2.6 6.2 1.7 1.7 3.8 2.6 6.2 2.6 2.9 0 5.3-1 7.2-2.9.4-.4.8-.7 1.3-.7.4 0 .8.2 1.2.5l3.2 3.2c.4.4.7.9.7 1.5 0 .4-.2.8-.5 1.2-1.6 1.8-3.6 3.3-5.9 4.3s-4.7 1.5-7.2 1.5c-3.3 0-6.2-.8-8.9-2.4z"/><g><path d="M-869.5-675.7h1.9v15.1h9.4v1.7h-11.3v-16.8zM-798.9-675.7h-1.8l-7.6 16.9h1.9l6.6-14.7 6.5 14.7h2l-7.6-16.9zM-740.1-675.7h7.1c1.9 0 3.4.6 4.4 1.5.7.7 1.1 1.6 1.1 2.7 0 2.2-1.3 3.3-2.7 3.9 2 .6 3.6 1.8 3.6 4.1 0 2.9-2.4 4.6-6.1 4.6h-7.4v-16.8zm10.7 4.5c0-1.7-1.3-2.7-3.7-2.7h-5.1v5.8h5c2.2-.1 3.8-1.1 3.8-3.1zm-3.5 4.7h-5.3v5.9h5.6c2.5 0 4.1-1.1 4.1-3 0-1.8-1.5-2.9-4.4-2.9zM-676-661.4l1.2-1.4c1.7 1.5 3.4 2.3 5.7 2.3 2.2 0 3.7-1.2 3.7-2.8 0-1.5-.8-2.4-4.4-3.1-3.9-.8-5.6-2-5.6-4.7 0-2.6 2.3-4.5 5.5-4.5 2.4 0 4.2.7 5.9 2l-1.1 1.4c-1.6-1.2-3.1-1.8-4.8-1.8-2.2 0-3.6 1.2-3.6 2.6 0 1.5.9 2.4 4.5 3.2 3.7.8 5.5 2.1 5.5 4.6 0 2.8-2.4 4.6-5.7 4.6-2.6.2-4.8-.7-6.8-2.4z"/></g><g><path d="M-938.9-662.9c0 1.5-.8 2.9-2.1 3.6-.6.4-1.3.5-2 .5h-83.5c-1.3 0-2.4-.6-3.2-1.5l-.3-.3c-.1-.1-.2-.3-.2-.4-.3-.6-.5-1.2-.5-1.9 0-1 .4-1.9 1-2.8.2-.3 29.2-43.9 29.2-44l-7.1-10.6-.6-.9c-.5-1-.8-2.1-.8-3.2 0-.8.1-1.6.4-2.3.3-.9 3.4-5.5 3.9-6.2l15.5 23.3-27.6 41.4h63.8l-7.3-10.9h11.3c.1.2 8.5 12.8 8.9 13.3.3.4.6.9.8 1.3.3.5.4 1 .4 1.6z"/><path d="M-964.6-702.8h-11.3l-21.8-32.7c-.8-1.1-1.2-2.4-1.2-3.9 0-1 .3-2.1.7-3 .3-.6 3.5-5.3 3.5-5.4l30.1 45z"/><path d="M-894.4-658.8h-8.1c-1.9 0-3.5-.8-4.6-2.2-.1-.1-.1-.2-.1-.2s-.1-.1-.1-.2l-16.6-24.9h-44.5c-1.1 0-2.2 0-3.3-.4-1.9-.6-3.3-2-4.4-3.6-.3-.4-3.3-5.1-3.6-5.4h49.6l-34.1-51.2-10.5 15.8-5.6-8.5 16.2-24.3 69.7 105.1z"/></g></g><g><path class="st1" d="M-1887.6 309.5c-2.6-2.4-3.9-5.4-3.9-9.2 0-3.4 1.2-6.3 3.6-8.5 2.4-2.3 5.7-3.7 10.1-4.4 1.1-.1 2.1-.2 3.1-.4 3.5-.4 5.6-.7 6.3-.9 1.8-.3 2.8-1.3 2.8-3.1s-.8-3.3-2.3-4.4c-1.5-1.1-3.4-1.7-5.7-1.7-4 0-7 1.5-8.8 4.4-.4.6-.9 1-1.4 1-.4 0-.7-.1-1-.3l-4.2-2.8c-.4-.3-.7-.7-.7-1.3 0-.1 0-.4.1-.7 1.4-2.7 3.6-4.9 6.4-6.4 2.8-1.5 6-2.3 9.6-2.3 3.3 0 6.2.6 8.6 1.9 2.5 1.2 4.4 3 5.8 5.3 1.4 2.3 2 4.9 2 7.9v28c0 .4-.1.8-.4 1.1-.3.3-.7.4-1.1.4h-5.1c-.4 0-.8-.1-1.1-.4-.3-.3-.4-.7-.4-1.2v-3.8c-3.4 3.6-7.5 5.4-12.2 5.4-4.1 0-7.5-1.2-10.1-3.6zm16.4-5.9c1.7-1 3.1-2.3 4.2-3.9s1.6-3.3 1.6-5.1v-1.5l-5.6.8c-3 .3-5 .6-5.9.8-4.1.7-6.1 2.5-6.1 5.3 0 1.5.6 2.8 1.7 3.7 1.1.9 2.7 1.4 4.5 1.4 2 0 3.8-.5 5.6-1.5zM-1839 311.8c-2.5-.8-4.7-2-6.6-3.5-.2-.2-.4-.5-.5-.8-.1-.3-.1-.6 0-.9.3-.8 1.2-2.4 2.5-4.7.4-.6.9-.9 1.5-.9.3 0 .7.1 1 .3 1.8 1.2 3.5 2.1 5 2.7 1.6.6 3.2.9 5 .9 2.1 0 3.7-.4 4.8-1.2 1.1-.8 1.6-1.8 1.6-3.2 0-1.1-.5-2-1.4-2.7-.9-.6-2.7-1.5-5.4-2.5l-2.7-1c-2.2-.8-4-1.8-5.6-2.7-1.5-1-2.8-2.3-3.9-4-1.1-1.7-1.6-3.8-1.6-6.3 0-3.9 1.3-7 3.9-9.4 2.6-2.3 6.1-3.5 10.4-3.5 2.5 0 5 .4 7.5 1.2 2.4.8 4.6 2 6.4 3.4.2.2.4.5.5.8.1.3.1.6 0 .9-.4 1-1.2 2.6-2.2 4.7-.3.5-.8.8-1.4.8-.3 0-.7-.1-1-.3-3.4-2.2-6.6-3.4-9.5-3.4-1.7 0-3 .4-4 1.1-1 .7-1.5 1.7-1.5 3s.5 2.4 1.6 3.2c1.1.9 3.1 1.9 6 3 2.8 1.1 5 2 6.6 2.8 1.6.8 3 2 4.3 3.7 1.3 1.7 2 3.8 2 6.4 0 2.6-.7 4.9-2 6.9s-3.2 3.5-5.5 4.6c-2.4 1.1-5.1 1.6-8.1 1.6-2.6.3-5.2-.2-7.7-1zM-1797.1 325.9c-.3-.4-.3-.9-.1-1.5l3.9-11-14.6-42.5c-.1-.3-.1-.5-.1-.7 0-.5.2-.9.5-1.2.3-.3.8-.5 1.3-.5h5.2c.5 0 1 .1 1.4.4.4.3.7.7.9 1.2l10.1 30.6 10.1-30.6c.1-.5.4-.9.9-1.2.4-.3.9-.4 1.4-.4h4.8c.5 0 1 .2 1.3.5.3.3.5.7.5 1.2 0 .1-.1.4-.1.7l-18.7 54c-.2.5-.5.9-.9 1.2-.4.3-.9.4-1.4.4h-4.9c-.8 0-1.2-.2-1.5-.6zM-1759.1 312.6c-.3-.3-.4-.7-.4-1.1v-41.4c0-.4.1-.8.4-1.1.3-.3.7-.4 1.1-.4h5.8c.4 0 .8.1 1.1.4.3.3.4.7.4 1.1v4.4c1.4-1.9 3-3.4 5-4.4 1.9-1.1 4-1.6 6.3-1.6 2.8 0 5.4.7 7.6 2s4 3.2 5.3 5.6c1.3 2.4 1.9 5.1 1.9 8v27.4c0 .4-.1.8-.4 1.1-.3.3-.7.4-1.1.4h-5.8c-.4 0-.8-.1-1.1-.4-.3-.3-.4-.7-.4-1.1v-26.3c0-2.6-.7-4.7-2-6.1-1.3-1.4-3.2-2.1-5.7-2.1-2.9 0-5.3 1-7 2.9-1.7 1.9-2.6 4.6-2.6 7.9v23.7c0 .4-.1.8-.4 1.1-.3.3-.7.4-1.1.4h-5.8c-.4 0-.8-.1-1.1-.4zM-1703.9 310.7c-2.7-1.6-4.9-3.7-6.4-6.5-1.6-2.7-2.4-5.7-2.4-8.9v-9c0-3.2.8-6.2 2.4-8.9 1.6-2.7 3.7-4.9 6.4-6.5 2.7-1.6 5.7-2.4 8.9-2.4 2.5 0 4.9.5 7.2 1.5s4.2 2.4 5.9 4.3c.3.3.5.7.5 1.2s-.2 1-.7 1.5l-3.2 3.2c-.3.3-.7.5-1.2.5-.4 0-.9-.2-1.3-.7-1.9-1.9-4.3-2.9-7.2-2.9-2.4 0-4.5.9-6.2 2.6-1.7 1.7-2.6 3.8-2.6 6.2v9.8c0 2.4.9 4.5 2.6 6.2 1.7 1.7 3.8 2.6 6.2 2.6 2.9 0 5.3-1 7.2-2.9.4-.4.8-.7 1.3-.7.4 0 .8.2 1.2.5l3.2 3.2c.4.4.7.9.7 1.5 0 .4-.2.8-.5 1.2-1.6 1.8-3.6 3.3-5.9 4.3s-4.7 1.5-7.2 1.5c-3.3 0-6.2-.8-8.9-2.4z"/><g><path class="st1" d="M-1889.5 344.3h1.9v15.1h9.4v1.7h-11.3v-16.8zM-1818.9 344.3h-1.8l-7.6 16.9h1.9l6.6-14.7 6.5 14.7h2l-7.6-16.9zM-1760.1 344.3h7.1c1.9 0 3.4.6 4.4 1.5.7.7 1.1 1.6 1.1 2.7 0 2.2-1.3 3.3-2.7 3.9 2 .6 3.6 1.8 3.6 4.1 0 2.9-2.4 4.6-6.1 4.6h-7.4v-16.8zm10.7 4.5c0-1.7-1.3-2.7-3.7-2.7h-5.1v5.8h5c2.2-.1 3.8-1.1 3.8-3.1zm-3.5 4.7h-5.3v5.9h5.6c2.5 0 4.1-1.1 4.1-3 0-1.8-1.5-2.9-4.4-2.9zM-1696 358.6l1.2-1.4c1.7 1.5 3.4 2.3 5.7 2.3 2.2 0 3.7-1.2 3.7-2.8 0-1.5-.8-2.4-4.4-3.1-3.9-.8-5.6-2-5.6-4.7 0-2.6 2.3-4.5 5.5-4.5 2.4 0 4.2.7 5.9 2l-1.1 1.4c-1.6-1.2-3.1-1.8-4.8-1.8-2.2 0-3.6 1.2-3.6 2.6 0 1.5.9 2.4 4.5 3.2 3.7.8 5.5 2.1 5.5 4.6 0 2.8-2.4 4.6-5.7 4.6-2.6.2-4.8-.7-6.8-2.4z"/></g><g><path class="st1" d="M-1958.9 357.1c0 1.5-.8 2.9-2.1 3.6-.6.4-1.3.5-2 .5h-83.5c-1.3 0-2.4-.6-3.2-1.5l-.3-.3c-.1-.1-.2-.3-.2-.4-.3-.6-.5-1.2-.5-1.9 0-1 .4-1.9 1-2.8.2-.3 29.2-43.9 29.2-44l-7.1-10.6-.6-.9c-.5-1-.8-2.1-.8-3.2 0-.8.1-1.6.4-2.3.3-.9 3.4-5.5 3.9-6.2l15.5 23.3-27.6 41.4h63.8l-7.3-10.9h11.3c.1.2 8.5 12.8 8.9 13.3.3.4.6.9.8 1.3.3.5.4 1 .4 1.6z"/><path class="st1" d="M-1984.6 317.2h-11.3l-21.8-32.7c-.8-1.1-1.2-2.4-1.2-3.9 0-1 .3-2.1.7-3 .3-.6 3.5-5.3 3.5-5.4l30.1 45z"/><path class="st1" d="M-1914.4 361.2h-8.1c-1.9 0-3.5-.8-4.6-2.2-.1-.1-.1-.2-.1-.2s-.1-.1-.1-.2l-16.6-24.9h-44.5c-1.1 0-2.2 0-3.3-.4-1.9-.6-3.3-2-4.4-3.6-.3-.4-3.3-5.1-3.6-5.4h49.6l-34.1-51.2-10.5 15.8-5.6-8.5 16.2-24.3 69.7 105.1z"/></g></g><g><path class="st4" d="M-1887.6 809.5c-2.6-2.4-3.9-5.4-3.9-9.2 0-3.4 1.2-6.3 3.6-8.5 2.4-2.3 5.7-3.7 10.1-4.4 1.1-.1 2.1-.2 3.1-.4 3.5-.4 5.6-.7 6.3-.9 1.8-.3 2.8-1.3 2.8-3.1s-.8-3.3-2.3-4.4c-1.5-1.1-3.4-1.7-5.7-1.7-4 0-7 1.5-8.8 4.4-.4.6-.9 1-1.4 1-.4 0-.7-.1-1-.3l-4.2-2.8c-.4-.3-.7-.7-.7-1.3 0-.1 0-.4.1-.7 1.4-2.7 3.6-4.9 6.4-6.4 2.8-1.5 6-2.3 9.6-2.3 3.3 0 6.2.6 8.6 1.9 2.5 1.2 4.4 3 5.8 5.3 1.4 2.3 2 4.9 2 7.9v28c0 .4-.1.8-.4 1.1-.3.3-.7.4-1.1.4h-5.1c-.4 0-.8-.1-1.1-.4-.3-.3-.4-.7-.4-1.2v-3.8c-3.4 3.6-7.5 5.4-12.2 5.4-4.1 0-7.5-1.2-10.1-3.6zm16.4-5.9c1.7-1 3.1-2.3 4.2-3.9s1.6-3.3 1.6-5.1v-1.5l-5.6.8c-3 .3-5 .6-5.9.8-4.1.7-6.1 2.5-6.1 5.3 0 1.5.6 2.8 1.7 3.7 1.1.9 2.7 1.4 4.5 1.4 2 0 3.8-.5 5.6-1.5zM-1839 811.8c-2.5-.8-4.7-2-6.6-3.5-.2-.2-.4-.5-.5-.8-.1-.3-.1-.6 0-.9.3-.8 1.2-2.4 2.5-4.7.4-.6.9-.9 1.5-.9.3 0 .7.1 1 .3 1.8 1.2 3.5 2.1 5 2.7 1.6.6 3.2.9 5 .9 2.1 0 3.7-.4 4.8-1.2 1.1-.8 1.6-1.8 1.6-3.2 0-1.1-.5-2-1.4-2.7-.9-.6-2.7-1.5-5.4-2.5l-2.7-1c-2.2-.8-4-1.8-5.6-2.7-1.5-1-2.8-2.3-3.9-4-1.1-1.7-1.6-3.8-1.6-6.3 0-3.9 1.3-7 3.9-9.4 2.6-2.3 6.1-3.5 10.4-3.5 2.5 0 5 .4 7.5 1.2 2.4.8 4.6 2 6.4 3.4.2.2.4.5.5.8.1.3.1.6 0 .9-.4 1-1.2 2.6-2.2 4.7-.3.5-.8.8-1.4.8-.3 0-.7-.1-1-.3-3.4-2.2-6.6-3.4-9.5-3.4-1.7 0-3 .4-4 1.1-1 .7-1.5 1.7-1.5 3s.5 2.4 1.6 3.2c1.1.9 3.1 1.9 6 3 2.8 1.1 5 2 6.6 2.8 1.6.8 3 2 4.3 3.7 1.3 1.7 2 3.8 2 6.4 0 2.6-.7 4.9-2 6.9s-3.2 3.5-5.5 4.6c-2.4 1.1-5.1 1.6-8.1 1.6-2.6.3-5.2-.2-7.7-1zM-1797.1 825.9c-.3-.4-.3-.9-.1-1.5l3.9-11-14.6-42.5c-.1-.3-.1-.5-.1-.7 0-.5.2-.9.5-1.2.3-.3.8-.5 1.3-.5h5.2c.5 0 1 .1 1.4.4.4.3.7.7.9 1.2l10.1 30.6 10.1-30.6c.1-.5.4-.9.9-1.2.4-.3.9-.4 1.4-.4h4.8c.5 0 1 .2 1.3.5.3.3.5.7.5 1.2 0 .1-.1.4-.1.7l-18.7 54c-.2.5-.5.9-.9 1.2-.4.3-.9.4-1.4.4h-4.9c-.8 0-1.2-.2-1.5-.6zM-1759.1 812.6c-.3-.3-.4-.7-.4-1.1v-41.4c0-.4.1-.8.4-1.1.3-.3.7-.4 1.1-.4h5.8c.4 0 .8.1 1.1.4.3.3.4.7.4 1.1v4.4c1.4-1.9 3-3.4 5-4.4 1.9-1.1 4-1.6 6.3-1.6 2.8 0 5.4.7 7.6 2 2.3 1.3 4 3.2 5.3 5.6 1.3 2.4 1.9 5.1 1.9 8v27.4c0 .4-.1.8-.4 1.1-.3.3-.7.4-1.1.4h-5.8c-.4 0-.8-.1-1.1-.4-.3-.3-.4-.7-.4-1.1v-26.3c0-2.6-.7-4.7-2-6.1-1.3-1.4-3.2-2.1-5.7-2.1-2.9 0-5.3 1-7 2.9-1.7 1.9-2.6 4.6-2.6 7.9v23.7c0 .4-.1.8-.4 1.1-.3.3-.7.4-1.1.4h-5.8c-.4 0-.8-.1-1.1-.4zM-1703.9 810.7c-2.7-1.6-4.9-3.7-6.4-6.5-1.6-2.7-2.4-5.7-2.4-8.9v-9c0-3.2.8-6.2 2.4-8.9 1.6-2.7 3.7-4.9 6.4-6.5 2.7-1.6 5.7-2.4 8.9-2.4 2.5 0 4.9.5 7.2 1.5s4.2 2.4 5.9 4.3c.3.3.5.7.5 1.2s-.2 1-.7 1.5l-3.2 3.2c-.3.3-.7.5-1.2.5-.4 0-.9-.2-1.3-.7-1.9-1.9-4.3-2.9-7.2-2.9-2.4 0-4.5.9-6.2 2.6-1.7 1.7-2.6 3.8-2.6 6.2v9.8c0 2.4.9 4.5 2.6 6.2 1.7 1.7 3.8 2.6 6.2 2.6 2.9 0 5.3-1 7.2-2.9.4-.4.8-.7 1.3-.7.4 0 .8.2 1.2.5l3.2 3.2c.4.4.7.9.7 1.5 0 .4-.2.8-.5 1.2-1.6 1.8-3.6 3.3-5.9 4.3s-4.7 1.5-7.2 1.5c-3.3 0-6.2-.8-8.9-2.4z"/><g><path class="st0" d="M-1889.5 844.3h1.9v15.1h9.4v1.7h-11.3v-16.8zM-1818.9 844.3h-1.8l-7.6 16.9h1.9l6.6-14.7 6.5 14.7h2l-7.6-16.9zM-1760.1 844.3h7.1c1.9 0 3.4.6 4.4 1.5.7.7 1.1 1.6 1.1 2.7 0 2.2-1.3 3.3-2.7 3.9 2 .6 3.6 1.8 3.6 4.1 0 2.9-2.4 4.6-6.1 4.6h-7.4v-16.8zm10.7 4.5c0-1.7-1.3-2.7-3.7-2.7h-5.1v5.8h5c2.2-.1 3.8-1.1 3.8-3.1zm-3.5 4.7h-5.3v5.9h5.6c2.5 0 4.1-1.1 4.1-3 0-1.8-1.5-2.9-4.4-2.9zM-1696 858.6l1.2-1.4c1.7 1.5 3.4 2.3 5.7 2.3 2.2 0 3.7-1.2 3.7-2.8 0-1.5-.8-2.4-4.4-3.1-3.9-.8-5.6-2-5.6-4.7 0-2.6 2.3-4.5 5.5-4.5 2.4 0 4.2.7 5.9 2l-1.1 1.4c-1.6-1.2-3.1-1.8-4.8-1.8-2.2 0-3.6 1.2-3.6 2.6 0 1.5.9 2.4 4.5 3.2 3.7.8 5.5 2.1 5.5 4.6 0 2.8-2.4 4.6-5.7 4.6-2.6.2-4.8-.7-6.8-2.4z"/></g><g><path class="st0" d="M-1958.9 857.1c0 1.5-.8 2.9-2.1 3.6-.6.4-1.3.5-2 .5h-83.5c-1.3 0-2.4-.6-3.2-1.5l-.3-.3c-.1-.1-.2-.3-.2-.4-.3-.6-.5-1.2-.5-1.9 0-1 .4-1.9 1-2.8.2-.3 29.2-43.9 29.2-44l-7.1-10.6-.6-.9c-.5-1-.8-2.1-.8-3.2 0-.8.1-1.6.4-2.3.3-.9 3.4-5.5 3.9-6.2l15.5 23.3-27.6 41.4h63.8l-7.3-10.9h11.3c.1.2 8.5 12.8 8.9 13.3.3.4.6.9.8 1.3.3.5.4 1 .4 1.6z"/><path class="st0" d="M-1984.6 817.2h-11.3l-21.8-32.7c-.8-1.1-1.2-2.4-1.2-3.9 0-1 .3-2.1.7-3 .3-.6 3.5-5.3 3.5-5.4l30.1 45z"/><path class="st4" d="M-1914.4 861.2h-8.1c-1.9 0-3.5-.8-4.6-2.2-.1-.1-.1-.2-.1-.2s-.1-.1-.1-.2l-16.6-24.9h-44.5c-1.1 0-2.2 0-3.3-.4-1.9-.6-3.3-2-4.4-3.6-.3-.4-3.3-5.1-3.6-5.4h49.6l-34.1-51.2-10.5 15.8-5.6-8.5 16.2-24.3 69.7 105.1z"/></g></g><g><path class="st0" d="M3.9 41.1C1.3 38.7 0 35.7 0 31.9c0-3.4 1.2-6.3 3.6-8.5C6 21.1 9.3 19.7 13.7 19c1.1-.1 2.1-.2 3.1-.4 3.5-.4 5.6-.7 6.3-.9 1.8-.3 2.8-1.3 2.8-3.1s-.8-3.3-2.3-4.4-3.4-1.7-5.7-1.7c-4 0-7 1.5-8.8 4.4-.4.6-.9 1-1.4 1-.4 0-.7-.1-1-.3l-4.2-2.8c-.4-.3-.7-.7-.7-1.3 0-.1 0-.4.1-.7 1.4-2.7 3.6-4.9 6.4-6.4C11.3.8 14.5 0 18 0c3.3 0 6.2.6 8.6 1.9 2.5 1.2 4.4 3 5.8 5.3 1.4 2.3 2 4.9 2 7.9v28c0 .4-.1.8-.4 1.1-.3.3-.7.4-1.1.4h-5.1c-.4 0-.8-.1-1.1-.4-.3-.3-.4-.7-.4-1.2v-3.8c-3.4 3.6-7.5 5.4-12.2 5.4-4.2 0-7.6-1.1-10.2-3.5zm16.4-5.9c1.7-1 3.1-2.3 4.2-3.9s1.6-3.3 1.6-5.1v-1.5l-5.6.8c-3 .3-5 .6-5.9.8-4.1.7-6.1 2.5-6.1 5.3 0 1.5.6 2.8 1.7 3.7 1.1.9 2.7 1.4 4.5 1.4 2 0 3.8-.5 5.6-1.5zM52.5 43.4c-2.5-.8-4.7-2-6.6-3.5-.2-.2-.4-.5-.5-.8-.1-.3-.1-.6 0-.9.3-.8 1.2-2.4 2.5-4.7.4-.6.9-.9 1.5-.9.3 0 .7.1 1 .3 1.8 1.2 3.5 2.1 5 2.7 1.6.6 3.2.9 5 .9 2.1 0 3.7-.4 4.8-1.2 1.1-.8 1.6-1.8 1.6-3.2 0-1.1-.5-2-1.4-2.7-.9-.6-2.7-1.5-5.4-2.5l-2.7-1c-2.2-.8-4-1.8-5.6-2.7-1.5-1-2.8-2.3-3.9-4-1.1-1.7-1.6-3.8-1.6-6.3 0-3.9 1.3-7 3.9-9.4C52.7 1.2 56.2 0 60.5 0c2.5 0 5 .4 7.5 1.2 2.4.8 4.6 2 6.4 3.4.2.2.4.5.5.8.1.3.1.6 0 .9-.4 1-1.2 2.6-2.2 4.7-.3.5-.8.8-1.4.8-.3 0-.7-.1-1-.3-3.4-2.2-6.6-3.4-9.5-3.4-1.7 0-3 .4-4 1.1-1 .7-1.5 1.7-1.5 3s.5 2.4 1.6 3.2c1.1.9 3.1 1.9 6 3 2.8 1.1 5 2 6.6 2.8s3 2 4.3 3.7c1.3 1.7 2 3.8 2 6.4 0 2.6-.7 4.9-2 6.9s-3.2 3.5-5.5 4.6c-2.4 1.1-5.1 1.6-8.1 1.6-2.6.2-5.2-.2-7.7-1zM94.4 57.4c-.3-.4-.4-.9-.2-1.4l3.9-11L83.5 2.5c-.1-.3-.1-.5-.1-.7 0-.5.2-.9.5-1.2.3-.3.8-.5 1.3-.5h5.2c.5 0 1 .1 1.4.4.4.3.7.7.9 1.2l10.1 30.6 10.1-30.6c.1-.5.4-.9.9-1.2.4-.3.9-.4 1.4-.4h4.8c.5 0 1 .2 1.3.5.3.3.5.7.5 1.2 0 .1-.1.4-.1.7l-18.7 54c-.2.5-.5.9-.9 1.2-.4.3-.9.4-1.4.4h-4.9c-.7 0-1.1-.2-1.4-.7zM132.4 44.2c-.3-.3-.4-.7-.4-1.1V1.7c0-.4.1-.8.4-1.1s.7-.4 1.1-.4h5.8c.4 0 .8.1 1.1.4s.4.7.4 1.1v4.4c1.4-1.9 3-3.4 5-4.4 1.9-1.1 4-1.6 6.3-1.6 2.8 0 5.4.7 7.6 2 2.3 1.3 4 3.2 5.3 5.6 1.3 2.4 1.9 5.1 1.9 8v27.4c0 .4-.1.8-.4 1.1-.3.3-.7.4-1.1.4h-5.8c-.4 0-.8-.1-1.1-.4-.3-.3-.4-.7-.4-1.1V16.8c0-2.6-.7-4.7-2-6.1-1.3-1.4-3.2-2.1-5.7-2.1-2.9 0-5.3 1-7 2.9-1.7 1.9-2.6 4.6-2.6 7.9v23.7c0 .4-.1.8-.4 1.1-.3.3-.7.4-1.1.4h-5.8c-.5 0-.8-.1-1.1-.4zM187.6 42.2c-2.7-1.6-4.9-3.7-6.4-6.5-1.6-2.7-2.4-5.7-2.4-8.9v-9c0-3.2.8-6.2 2.4-8.9 1.6-2.7 3.7-4.9 6.4-6.5 2.7-1.6 5.7-2.4 8.9-2.4 2.5 0 4.9.5 7.2 1.5s4.2 2.4 5.9 4.3c.3.3.5.7.5 1.2s-.2 1-.7 1.5l-3.2 3.2c-.3.3-.7.5-1.2.5-.4 0-.9-.2-1.3-.7-1.9-1.9-4.3-2.9-7.2-2.9-2.4 0-4.5.9-6.2 2.6-1.7 1.7-2.6 3.8-2.6 6.2v9.8c0 2.4.9 4.5 2.6 6.2 1.7 1.7 3.8 2.6 6.2 2.6 2.9 0 5.3-1 7.2-2.9.4-.4.8-.7 1.3-.7.4 0 .8.2 1.2.5l3.2 3.2c.4.4.7.9.7 1.5 0 .4-.2.8-.5 1.2-1.6 1.8-3.6 3.3-5.9 4.3-2.3 1-4.7 1.5-7.2 1.5-3.3 0-6.2-.8-8.9-2.4z"/><g><path class="st0" d="M2 75.9h1.9V91h9.4v1.7H2V75.9zM72.6 75.9h-1.8l-7.6 16.9h1.9l6.6-14.7 6.5 14.7h2l-7.6-16.9zM131.4 75.9h7.1c1.9 0 3.4.6 4.4 1.5.7.7 1.1 1.6 1.1 2.7 0 2.2-1.3 3.3-2.7 3.9 2 .6 3.6 1.8 3.6 4.1 0 2.9-2.4 4.6-6.1 4.6h-7.4V75.9zm10.7 4.4c0-1.7-1.3-2.7-3.7-2.7h-5.1v5.8h5c2.2 0 3.8-1 3.8-3.1zm-3.5 4.8h-5.3V91h5.6c2.5 0 4.1-1.1 4.1-3s-1.5-2.9-4.4-2.9zM195.5 90.1l1.2-1.4c1.7 1.5 3.4 2.3 5.7 2.3 2.2 0 3.7-1.2 3.7-2.8 0-1.5-.8-2.4-4.4-3.1-3.9-.8-5.6-2-5.6-4.7 0-2.6 2.3-4.5 5.5-4.5 2.4 0 4.2.7 5.9 2l-1.1 1.4c-1.6-1.2-3.1-1.8-4.8-1.8-2.2 0-3.6 1.2-3.6 2.6 0 1.5.9 2.4 4.5 3.2 3.7.8 5.5 2.1 5.5 4.6 0 2.8-2.4 4.6-5.7 4.6-2.7.2-4.8-.6-6.8-2.4z"/></g><g><path class="st0" d="M486-195.5c0 1.5-.8 2.9-2.1 3.6-.6.4-1.3.5-2 .5h-83.5c-1.3 0-2.4-.6-3.2-1.5l-.3-.3c-.1-.1-.2-.3-.2-.4-.3-.6-.5-1.2-.5-1.9 0-1 .4-1.9 1-2.8.2-.3 29.2-43.9 29.2-44l-7.1-10.6-.6-.9c-.5-1-.8-2.1-.8-3.2 0-.8.1-1.6.4-2.3.3-.9 3.4-5.5 3.9-6.2l15.5 23.3-27.6 41.4h63.8l-7.3-10.9H476c.1.2 8.5 12.8 8.9 13.3.3.4.6.9.8 1.3.2.5.3 1.1.3 1.6z"/><path class="st0" d="M460.3-235.4H449l-21.8-32.7c-.8-1.1-1.2-2.4-1.2-3.9 0-1 .3-2.1.7-3 .3-.6 3.5-5.3 3.5-5.4l30.1 45z"/><path class="st0" d="M530.5-191.4h-8.1c-1.9 0-3.5-.8-4.6-2.2-.1-.1-.1-.2-.1-.2s-.1-.1-.1-.2L501-218.8h-44.5c-1.1 0-2.2 0-3.3-.4-1.9-.6-3.3-2-4.4-3.6-.3-.4-3.3-5.1-3.6-5.4h49.6l-34.1-51.2-10.5 15.8-5.6-8.5 16.2-24.3 69.7 105z"/></g></g><g><text transform="translate(-808.803 320.933)" class="st1" font-family="Gotham-Medium" font-size="29.285">R38 G103 B198</text><path class="st3" d="M-1115.6 288.4h40.6V329h-40.6z"/><text transform="translate(-1008.67 320.933)" class="st1" font-family="Gotham-Medium" font-size="29.285">#2667C6</text><g><text transform="translate(-808.803 416.793)" class="st1" font-family="Gotham-Medium" font-size="29.285">R107 G107 B107</text><path class="st1" d="M-1115.6 384.2h40.6v40.6h-40.6z"/><text transform="translate(-1008.67 416.793)" class="st1" font-family="Gotham-Medium" font-size="29.285">#6B6B6B</text></g><g><path class="st2" d="M-1115.6 192.5h40.6v40.6h-40.6z"/><text transform="translate(-1008.67 225.074)" class="st1" font-family="Gotham-Medium" font-size="29.285">#237EF3</text><text transform="translate(-808.803 225.074)" class="st1" font-family="Gotham-Medium" font-size="29.285">R35 G126 B243</text></g></g><g><path class="st4" d="M-1122.5 734.1h40.6v40.6h-40.6z"/><text transform="translate(-1015.585 766.672)" class="st0" font-family="Gotham-Medium" font-size="29.285">#D9E3E8</text><text transform="translate(-815.717 766.672)" class="st0" font-family="Gotham-Medium" font-size="29.29">R217 G227 B232</text><g><path class="st0" d="M-1122.5 842.6h40.6v40.6h-40.6z"/><text transform="translate(-1015.585 875.194)" class="st0" font-family="Gotham-Medium" font-size="29.285">#FFFFFF</text><text transform="translate(-815.717 875.194)" class="st0" font-family="Gotham-Medium" font-size="29.29">R255 G255 B255</text></g></g></g></svg>